<svg xmlns="http://www.w3.org/2000/svg" viewBox="0 0 192 192" width="192" height="192">
  <!-- خلفية دائرية -->
  <circle cx="96" cy="96" r="90" fill="#6F7354" />
  <circle cx="96" cy="96" r="82" fill="#F4F4F0" />
  
  <!-- يدان تصنعان منتجًا -->
  <g fill="#6F7354">
    <!-- اليد اليمنى -->
    <path d="M65 90c-5.6 3.7-9.4 11.2-9.4 18.7 0 5.6 1.9 11.2 5.6 15 1.9 1.9 5.6 3.7 9.4 3.7 1.9 0 3.7-1.9 5.6-3.7 1.9-1.9 3.7-5.6 3.7-9.4 0-1.9-1.9-3.7-3.7-5.6-1.9-1.9-3.7-1.9-5.6-1.9s-3.7 0-5.6 1.9c-1.9-3.7-1.9-7.5 0-11.2 1.9-1.9 3.7-3.7 7.5-5.6z" />
    
    <!-- اليد اليسرى -->
    <path d="M129.4 90c5.6 3.7 9.4 11.2 9.4 18.7 0 5.6-1.9 11.2-5.6 15-1.9 1.9-5.6 3.7-9.4 3.7-1.9 0-3.7-1.9-5.6-3.7-1.9-1.9-3.7-5.6-3.7-9.4 0-1.9 1.9-3.7 3.7-5.6 1.9-1.9 3.7-1.9 5.6-1.9s3.7 0 5.6 1.9c1.9-3.7 1.9-7.5 0-11.2-1.9-1.9-3.7-3.7-7.5-5.6z" />
    
    <!-- المنتج اليدوي في المنتصف -->
    <path d="M96 67.5c-11.2 0-18.7 7.5-18.7 18.7v22.5c0 7.5 3.7 15 11.2 18.7 1.9 1.9 5.6 1.9 7.5 1.9 1.9 0 5.6 0 7.5-1.9 7.5-3.7 11.2-11.2 11.2-18.7V86.2c0-11.2-7.5-18.7-18.7-18.7zm0 7.5c5.6 0 9.4 3.7 9.4 9.4v3.7H86.6v-3.7c0-5.6 3.7-9.4 9.4-9.4zm0 41.2c-5.6 0-9.4-3.7-9.4-9.4v-11.2h18.7v11.2c0 5.6-3.7 9.4-9.4 9.4z" />
  </g>
  
  <!-- الزخارف -->
  <circle cx="96" cy="96" r="75" fill="none" stroke="#BEB4DA" stroke-width="1" stroke-dasharray="2,2" />
</svg> 