<svg xmlns="http://www.w3.org/2000/svg" viewBox="0 0 512 512" width="512" height="512">
  <!-- خلفية دائرية -->
  <circle cx="256" cy="256" r="240" fill="#6F7354" />
  <circle cx="256" cy="256" r="220" fill="#F4F4F0" />
  
  <!-- يدان تصنعان منتجًا -->
  <g fill="#6F7354">
    <!-- اليد اليمنى -->
    <path d="M170 240c-15 10-25 30-25 50 0 15 5 30 15 40 5 5 15 10 25 10 5 0 10-5 15-10 5-5 10-15 10-25 0-5-5-10-10-15-5-5-10-5-15-5s-10 0-15 5c-5-10-5-20 0-30 5-5 10-10 20-15z" />
    
    <!-- اليد اليسرى -->
    <path d="M345 240c15 10 25 30 25 50 0 15-5 30-15 40-5 5-15 10-25 10-5 0-10-5-15-10-5-5-10-15-10-25 0-5 5-10 10-15 5-5 10-5 15-5s10 0 15 5c5-10 5-20 0-30-5-5-10-10-20-15z" />
    
    <!-- المنتج اليدوي في المنتصف -->
    <path d="M255 180c-30 0-50 20-50 50v60c0 20 10 40 30 50 5 5 15 5 20 5 5 0 15 0 20-5 20-10 30-30 30-50v-60c0-30-20-50-50-50zm0 20c15 0 25 10 25 25v10h-50v-10c0-15 10-25 25-25zm0 110c-15 0-25-10-25-25v-30h50v30c0 15-10 25-25 25z" />
  </g>
  
  <!-- الزخارف -->
  <circle cx="256" cy="256" r="200" fill="none" stroke="#BEB4DA" stroke-width="2" stroke-dasharray="5,5" />
</svg> 