<svg width="312" height="262" viewBox="0 0 312 262" fill="none" xmlns="http://www.w3.org/2000/svg">
<g filter="url(#filter0_dd_15_6)">
<rect x="21" y="1" width="270" height="220" rx="31" fill="#FFFCF4" stroke="#6F7354" stroke-width="2" stroke-linecap="round" stroke-linejoin="round" stroke-dasharray="31 31"/>
<path d="M149.673 41.5908C153.124 37.9964 158.876 37.9964 162.327 41.5908C164.473 43.8267 167.642 44.7631 170.659 44.051C175.484 42.9121 180.307 46.08 181.277 50.9416C181.885 53.9888 184.053 56.5385 186.978 57.5891C191.66 59.2713 194.016 64.5388 192.222 69.1795C191.098 72.0864 191.562 75.4118 193.456 77.8871C196.491 81.8551 195.687 87.561 191.657 90.5129C189.146 92.3519 187.78 95.4151 188.047 98.5161C188.472 103.459 184.738 107.862 179.785 108.143C176.687 108.319 173.898 110.136 172.465 112.888C170.171 117.291 164.653 118.949 160.342 116.484C157.652 114.945 154.348 114.945 151.658 116.484C147.347 118.949 141.829 117.291 139.535 112.888C138.102 110.136 135.313 108.319 132.216 108.143C127.262 107.862 123.528 103.459 123.953 98.5161C124.22 95.4151 122.854 92.3519 120.343 90.5129C116.313 87.561 115.509 81.8551 118.544 77.8871C120.438 75.4118 120.902 72.0864 119.778 69.1795C117.984 64.5388 120.34 59.2713 125.022 57.5891C127.947 56.5385 130.115 53.9888 130.723 50.9416C131.693 46.08 136.516 42.9121 141.341 44.051C144.358 44.7631 147.527 43.8267 149.673 41.5908Z" fill="url(#paint0_linear_15_6)"/>
<path d="M149.673 41.5908C153.124 37.9964 158.876 37.9964 162.327 41.5908C164.473 43.8267 167.642 44.7631 170.659 44.051C175.484 42.9121 180.307 46.08 181.277 50.9416C181.885 53.9888 184.053 56.5385 186.978 57.5891C191.66 59.2713 194.016 64.5388 192.222 69.1795C191.098 72.0864 191.562 75.4118 193.456 77.8871C196.491 81.8551 195.687 87.561 191.657 90.5129C189.146 92.3519 187.78 95.4151 188.047 98.5161C188.472 103.459 184.738 107.862 179.785 108.143C176.687 108.319 173.898 110.136 172.465 112.888C170.171 117.291 164.653 118.949 160.342 116.484C157.652 114.945 154.348 114.945 151.658 116.484C147.347 118.949 141.829 117.291 139.535 112.888C138.102 110.136 135.313 108.319 132.216 108.143C127.262 107.862 123.528 103.459 123.953 98.5161C124.22 95.4151 122.854 92.3519 120.343 90.5129C116.313 87.561 115.509 81.8551 118.544 77.8871C120.438 75.4118 120.902 72.0864 119.778 69.1795C117.984 64.5388 120.34 59.2713 125.022 57.5891C127.947 56.5385 130.115 53.9888 130.723 50.9416C131.693 46.08 136.516 42.9121 141.341 44.051C144.358 44.7631 147.527 43.8267 149.673 41.5908Z" fill="url(#paint1_linear_15_6)" fill-opacity="0.1"/>
<path d="M126.187 78.5822C126.187 62.1168 139.534 48.769 156 48.769C172.465 48.769 185.813 62.1168 185.813 78.5823V79.1954C185.813 95.6608 172.465 109.009 156 109.009C139.534 109.009 126.187 95.6608 126.187 79.1954V78.5822Z" fill="black" fill-opacity="0.04"/>
<path d="M156 51.269C171.085 51.2691 183.313 63.4978 183.313 78.5825V79.1957C183.313 94.2802 171.085 106.508 156 106.508C140.915 106.508 128.687 94.2803 128.687 79.1957V78.5825C128.687 63.4978 140.915 51.269 156 51.269Z" stroke="white" stroke-opacity="0.3" stroke-width="5" stroke-linecap="round"/>
<path opacity="0.8" d="M151.087 84.3315L145.362 78.5482C145.054 78.2361 144.636 78.0607 144.199 78.0607C143.763 78.0607 143.345 78.2361 143.036 78.5482C142.393 79.1982 142.393 80.2482 143.036 80.8982L149.932 87.8649C150.576 88.5149 151.615 88.5149 152.258 87.8649L169.712 70.2315C170.355 69.5815 170.355 68.5315 169.712 67.8815C169.404 67.5694 168.985 67.394 168.549 67.394C168.113 67.394 167.694 67.5694 167.386 67.8815L151.087 84.3315Z" fill="white" stroke="#FDFDFD" stroke-linecap="round"/>
<path d="M186.216 79.1619C186.216 95.8499 172.688 109.378 156 109.378C139.312 109.378 125.784 95.8499 125.784 79.1619C125.784 62.4739 139.312 48.9457 156 48.9457C172.688 48.9457 186.216 62.4739 186.216 79.1619ZM132.004 79.1619C132.004 92.4142 142.748 103.157 156 103.157C169.252 103.157 179.995 92.4142 179.995 79.1619C179.995 65.9096 169.252 55.1665 156 55.1665C142.748 55.1665 132.004 65.9096 132.004 79.1619Z" fill="url(#paint2_linear_15_6)" fill-opacity="0.5"/>
<path d="M108.326 154.004C107.978 154.004 107.696 153.926 107.48 153.77C107.276 153.614 107.126 153.44 107.03 153.248C106.946 153.056 106.904 152.912 106.904 152.816C106.976 152.78 107.078 152.732 107.21 152.672C107.342 152.612 107.462 152.48 107.57 152.276C107.678 152.084 107.732 151.778 107.732 151.358V150.116C107.732 149.528 107.9 149.006 108.236 148.55C108.572 148.094 109.022 147.74 109.586 147.488C110.15 147.224 110.78 147.092 111.476 147.092H112.538C113.09 147.092 113.504 146.882 113.78 146.462C114.068 146.042 114.212 145.436 114.212 144.644C114.212 143.804 114.056 143.198 113.744 142.826C113.432 142.454 112.958 142.268 112.322 142.268C112.166 142.268 112.004 142.28 111.836 142.304C111.68 142.316 111.56 142.334 111.476 142.358V149H109.136V142.358C109.136 141.782 109.43 141.308 110.018 140.936C110.618 140.552 111.392 140.36 112.34 140.36C113.624 140.36 114.644 140.738 115.4 141.494C116.168 142.25 116.552 143.306 116.552 144.662C116.552 145.574 116.384 146.354 116.048 147.002C115.712 147.65 115.256 148.148 114.68 148.496C114.116 148.832 113.48 149 112.772 149H111.476C111.164 149 110.9 149.048 110.684 149.144C110.48 149.252 110.324 149.39 110.216 149.558C110.12 149.726 110.072 149.912 110.072 150.116V151.844C110.072 152.264 110 152.636 109.856 152.96C109.712 153.284 109.508 153.536 109.244 153.716C108.992 153.908 108.686 154.004 108.326 154.004ZM122.971 149C122.299 149 121.693 148.85 121.153 148.55C120.625 148.25 120.205 147.836 119.893 147.308C119.593 146.78 119.443 146.186 119.443 145.526V139.766C119.443 139.334 119.389 139.022 119.281 138.83C119.173 138.638 119.053 138.512 118.921 138.452C118.789 138.392 118.687 138.344 118.615 138.308C118.615 138.212 118.657 138.068 118.741 137.876C118.837 137.684 118.987 137.51 119.191 137.354C119.407 137.198 119.695 137.12 120.055 137.12C120.403 137.12 120.703 137.216 120.955 137.408C121.219 137.588 121.423 137.84 121.567 138.164C121.711 138.488 121.783 138.86 121.783 139.28V145.526C121.783 145.766 121.825 146.012 121.909 146.264C121.993 146.504 122.125 146.702 122.305 146.858C122.485 147.014 122.707 147.092 122.971 147.092H123.457V149H122.971ZM123.457 149V147.092C123.589 147.092 123.679 147.182 123.727 147.362C123.787 147.53 123.817 147.758 123.817 148.046C123.817 148.334 123.787 148.568 123.727 148.748C123.679 148.916 123.589 149 123.457 149ZM133.201 149C132.529 149 131.923 148.85 131.383 148.55C130.855 148.25 130.435 147.836 130.123 147.308C129.823 146.78 129.673 146.186 129.673 145.526V144.734H132.013V145.526C132.013 145.766 132.055 146.012 132.139 146.264C132.223 146.504 132.355 146.702 132.535 146.858C132.715 147.014 132.937 147.092 133.201 147.092H134.119V149H133.201ZM123.463 149V147.092H127.999C128.551 147.092 128.965 146.882 129.241 146.462C129.529 146.03 129.673 145.43 129.673 144.662C129.673 143.81 129.517 143.198 129.205 142.826C128.893 142.454 128.425 142.268 127.801 142.268C127.621 142.268 127.453 142.28 127.297 142.304C127.141 142.316 127.021 142.334 126.937 142.358V149H124.597V142.358C124.597 141.782 124.891 141.308 125.479 140.936C126.079 140.552 126.853 140.36 127.801 140.36C129.085 140.36 130.105 140.738 130.861 141.494C131.629 142.25 132.013 143.306 132.013 144.662C132.013 145.574 131.845 146.354 131.509 147.002C131.173 147.65 130.717 148.148 130.141 148.496C129.577 148.832 128.941 149 128.233 149H123.463ZM123.463 149C123.343 149 123.253 148.916 123.193 148.748C123.133 148.568 123.103 148.334 123.103 148.046C123.103 147.758 123.133 147.53 123.193 147.362C123.253 147.182 123.343 147.092 123.463 147.092V149ZM134.119 149V147.092C134.251 147.092 134.341 147.182 134.389 147.362C134.449 147.53 134.479 147.758 134.479 148.046C134.479 148.334 134.449 148.568 134.389 148.748C134.341 148.916 134.251 149 134.119 149ZM134.115 149V147.092H135.771C135.903 147.092 136.029 147.056 136.149 146.984C136.269 146.912 136.383 146.81 136.491 146.678C136.599 146.534 136.689 146.354 136.761 146.138C136.845 145.91 136.905 145.646 136.941 145.346C136.989 145.034 137.013 144.686 137.013 144.302C137.013 143.714 136.959 143.246 136.851 142.898C136.755 142.55 136.617 142.268 136.437 142.052C136.257 141.836 136.041 141.638 135.789 141.458C135.789 141.326 135.837 141.176 135.933 141.008C136.041 140.84 136.197 140.69 136.401 140.558C136.617 140.426 136.875 140.36 137.175 140.36C137.547 140.36 137.871 140.468 138.147 140.684C138.423 140.9 138.645 141.194 138.813 141.566C138.993 141.926 139.125 142.346 139.209 142.826C139.305 143.294 139.353 143.792 139.353 144.32C139.353 145.772 139.041 146.918 138.417 147.758C137.793 148.586 136.911 149 135.771 149H134.115ZM134.115 149C133.995 149 133.905 148.916 133.845 148.748C133.785 148.568 133.755 148.334 133.755 148.046C133.755 147.758 133.785 147.53 133.845 147.362C133.905 147.182 133.995 147.092 134.115 147.092V149ZM138.633 139.1C138.321 139.1 138.045 138.986 137.805 138.758C137.577 138.53 137.463 138.254 137.463 137.93C137.463 137.606 137.577 137.33 137.805 137.102C138.045 136.874 138.321 136.76 138.633 136.76C138.969 136.76 139.245 136.874 139.461 137.102C139.689 137.33 139.803 137.606 139.803 137.93C139.803 138.254 139.689 138.53 139.461 138.758C139.245 138.986 138.969 139.1 138.633 139.1ZM135.717 139.1C135.405 139.1 135.129 138.986 134.889 138.758C134.661 138.53 134.547 138.254 134.547 137.93C134.547 137.606 134.661 137.33 134.889 137.102C135.129 136.874 135.405 136.76 135.717 136.76C136.041 136.76 136.317 136.874 136.545 137.102C136.773 137.33 136.887 137.606 136.887 137.93C136.887 138.254 136.773 138.53 136.545 138.758C136.317 138.986 136.041 139.1 135.717 139.1ZM143.429 149C142.985 149 142.679 148.874 142.511 148.622C142.343 148.358 142.259 148.076 142.259 147.776V139.766C142.259 139.334 142.205 139.022 142.097 138.83C141.989 138.638 141.869 138.512 141.737 138.452C141.605 138.392 141.503 138.344 141.431 138.308C141.431 138.212 141.473 138.068 141.557 137.876C141.653 137.684 141.803 137.51 142.007 137.354C142.223 137.198 142.511 137.12 142.871 137.12C143.219 137.12 143.519 137.216 143.771 137.408C144.035 137.588 144.239 137.84 144.383 138.164C144.527 138.488 144.599 138.86 144.599 139.28V147.812C144.599 148.088 144.515 148.358 144.347 148.622C144.179 148.874 143.873 149 143.429 149ZM142.007 154.094C141.863 154.058 141.743 153.974 141.647 153.842C141.563 153.71 141.527 153.566 141.539 153.41C141.551 153.254 141.629 153.116 141.773 152.996C141.917 152.888 142.151 152.834 142.475 152.834C142.319 152.762 142.157 152.618 141.989 152.402C141.821 152.198 141.737 151.946 141.737 151.646C141.737 151.406 141.803 151.148 141.935 150.872C142.067 150.596 142.277 150.362 142.565 150.17C142.853 149.99 143.225 149.9 143.681 149.9C143.921 149.9 144.131 149.93 144.311 149.99C144.491 150.05 144.629 150.146 144.725 150.278C144.833 150.422 144.887 150.602 144.887 150.818C144.887 151.046 144.827 151.202 144.707 151.286C144.599 151.382 144.467 151.424 144.311 151.412C144.155 151.412 143.999 151.382 143.843 151.322C143.855 151.178 143.825 151.028 143.753 150.872C143.693 150.716 143.567 150.638 143.375 150.638C143.291 150.722 143.207 150.836 143.123 150.98C143.051 151.136 143.015 151.298 143.015 151.466C143.015 151.646 143.063 151.82 143.159 151.988C143.255 152.156 143.393 152.294 143.573 152.402C143.765 152.522 143.981 152.582 144.221 152.582C144.365 152.582 144.497 152.564 144.617 152.528C144.737 152.504 144.839 152.492 144.923 152.492C145.103 152.492 145.223 152.57 145.283 152.726C145.343 152.894 145.343 153.056 145.283 153.212C145.235 153.38 145.139 153.47 144.995 153.482C144.947 153.482 144.815 153.488 144.599 153.5C144.383 153.512 144.131 153.53 143.843 153.554C143.555 153.578 143.267 153.614 142.979 153.662C142.703 153.71 142.469 153.77 142.277 153.842C142.097 153.914 142.007 153.998 142.007 154.094ZM154.812 149.162C153.54 149.162 152.616 148.772 152.04 147.992C151.464 147.2 151.176 146.102 151.176 144.698C151.176 143.822 151.29 143.06 151.518 142.412C151.758 141.764 152.142 141.26 152.67 140.9C153.198 140.54 153.912 140.36 154.812 140.36C155.724 140.36 156.444 140.54 156.972 140.9C157.5 141.26 157.878 141.77 158.106 142.43C158.334 143.078 158.448 143.834 158.448 144.698C158.448 146.09 158.16 147.182 157.584 147.974C157.02 148.766 156.096 149.162 154.812 149.162ZM154.812 147.254C155.136 147.254 155.382 147.152 155.55 146.948C155.73 146.744 155.856 146.498 155.928 146.21C156.012 145.922 156.06 145.646 156.072 145.382C156.096 145.106 156.108 144.896 156.108 144.752C156.108 144.608 156.096 144.404 156.072 144.14C156.06 143.864 156.012 143.582 155.928 143.294C155.856 143.006 155.73 142.766 155.55 142.574C155.382 142.37 155.136 142.268 154.812 142.268C154.488 142.268 154.236 142.37 154.056 142.574C153.888 142.766 153.762 143.006 153.678 143.294C153.606 143.582 153.558 143.864 153.534 144.14C153.522 144.404 153.516 144.608 153.516 144.752C153.516 144.896 153.522 145.106 153.534 145.382C153.558 145.646 153.606 145.922 153.678 146.21C153.762 146.498 153.888 146.744 154.056 146.948C154.236 147.152 154.488 147.254 154.812 147.254ZM156.27 139.1C155.958 139.1 155.682 138.986 155.442 138.758C155.214 138.53 155.1 138.254 155.1 137.93C155.1 137.606 155.214 137.33 155.442 137.102C155.682 136.874 155.958 136.76 156.27 136.76C156.606 136.76 156.882 136.874 157.098 137.102C157.326 137.33 157.44 137.606 157.44 137.93C157.44 138.254 157.326 138.53 157.098 138.758C156.882 138.986 156.606 139.1 156.27 139.1ZM153.354 139.1C153.042 139.1 152.766 138.986 152.526 138.758C152.298 138.53 152.184 138.254 152.184 137.93C152.184 137.606 152.298 137.33 152.526 137.102C152.766 136.874 153.042 136.76 153.354 136.76C153.678 136.76 153.954 136.874 154.182 137.102C154.41 137.33 154.524 137.606 154.524 137.93C154.524 138.254 154.41 138.53 154.182 138.758C153.954 138.986 153.678 139.1 153.354 139.1ZM161.799 149C161.559 149 161.331 148.934 161.115 148.802C160.899 148.658 160.791 148.406 160.791 148.046C160.791 147.686 160.899 147.44 161.115 147.308C161.331 147.164 161.559 147.092 161.799 147.092H163.527C164.139 147.092 164.607 146.882 164.931 146.462C165.255 146.03 165.417 145.436 165.417 144.68C165.417 144.116 165.339 143.654 165.183 143.294C165.039 142.934 164.859 142.652 164.643 142.448C164.439 142.244 164.247 142.1 164.067 142.016L164.391 142.088C164.271 142.04 164.115 142.052 163.923 142.124C163.743 142.196 163.575 142.34 163.419 142.556C163.275 142.772 163.203 143.078 163.203 143.474C163.071 143.522 162.891 143.576 162.663 143.636C162.447 143.696 162.249 143.726 162.069 143.726C161.757 143.726 161.463 143.618 161.187 143.402C160.923 143.186 160.791 142.85 160.791 142.394C160.791 141.974 160.911 141.632 161.151 141.368C161.391 141.092 161.679 140.882 162.015 140.738C162.363 140.594 162.699 140.498 163.023 140.45C163.347 140.39 163.593 140.36 163.761 140.36C164.085 140.36 164.469 140.438 164.913 140.594C165.357 140.75 165.795 141.002 166.227 141.35C166.671 141.686 167.037 142.136 167.325 142.7C167.613 143.252 167.757 143.936 167.757 144.752C167.757 145.688 167.553 146.474 167.145 147.11C166.749 147.734 166.227 148.208 165.579 148.532C164.943 148.844 164.259 149 163.527 149H161.799ZM174.176 149C173.504 149 172.898 148.85 172.358 148.55C171.83 148.25 171.41 147.836 171.098 147.308C170.798 146.78 170.648 146.186 170.648 145.526V139.766C170.648 139.334 170.594 139.022 170.486 138.83C170.378 138.638 170.258 138.512 170.126 138.452C169.994 138.392 169.892 138.344 169.82 138.308C169.82 138.212 169.862 138.068 169.946 137.876C170.042 137.684 170.192 137.51 170.396 137.354C170.612 137.198 170.9 137.12 171.26 137.12C171.608 137.12 171.908 137.216 172.16 137.408C172.424 137.588 172.628 137.84 172.772 138.164C172.916 138.488 172.988 138.86 172.988 139.28V145.526C172.988 145.766 173.03 146.012 173.114 146.264C173.198 146.504 173.33 146.702 173.51 146.858C173.69 147.014 173.912 147.092 174.176 147.092H174.662V149H174.176ZM174.662 149V147.092C174.794 147.092 174.884 147.182 174.932 147.362C174.992 147.53 175.022 147.758 175.022 148.046C175.022 148.334 174.992 148.568 174.932 148.748C174.884 148.916 174.794 149 174.662 149ZM187.682 149C187.01 149 186.404 148.85 185.864 148.55C185.336 148.25 184.916 147.836 184.604 147.308C184.304 146.78 184.154 146.186 184.154 145.526V144.734L186.494 143.942V145.526C186.494 145.766 186.536 146.012 186.62 146.264C186.704 146.504 186.836 146.702 187.016 146.858C187.196 147.014 187.418 147.092 187.682 147.092H188.6V149H187.682ZM174.668 149V147.092H176.342C177.554 147.092 178.388 146.894 178.844 146.498C179.312 146.09 179.546 145.424 179.546 144.5C179.546 143.972 179.48 143.636 179.348 143.492C179.228 143.348 179.036 143.276 178.772 143.276C178.508 143.276 178.31 143.348 178.178 143.492C178.058 143.636 177.998 143.972 177.998 144.5C177.998 145.424 178.226 146.09 178.682 146.498C179.15 146.894 179.99 147.092 181.202 147.092H182.12C182.732 147.092 183.224 146.816 183.596 146.264C183.968 145.7 184.154 144.884 184.154 143.816C184.154 143 184.016 142.352 183.74 141.872C183.464 141.392 182.984 141.05 182.3 140.846C181.628 140.63 180.686 140.522 179.474 140.522C179.21 140.522 178.964 140.528 178.736 140.54C178.52 140.54 178.364 140.54 178.268 140.54C177.812 140.54 177.446 140.45 177.17 140.27C176.894 140.078 176.696 139.838 176.576 139.55C176.456 139.262 176.396 138.974 176.396 138.686C176.396 138.386 176.438 138.188 176.522 138.092C176.618 137.996 176.726 137.948 176.846 137.948C176.906 138.14 177.056 138.308 177.296 138.452C177.536 138.584 177.914 138.65 178.43 138.65C178.598 138.65 178.754 138.644 178.898 138.632C179.042 138.62 179.282 138.614 179.618 138.614C182.03 138.614 183.776 139.064 184.856 139.964C185.948 140.852 186.494 142.154 186.494 143.87C186.494 145.01 186.29 145.964 185.882 146.732C185.474 147.488 184.94 148.058 184.28 148.442C183.62 148.814 182.9 149 182.12 149H181.202C180.182 149 179.252 148.856 178.412 148.568C177.572 148.28 176.9 147.818 176.396 147.182C175.904 146.534 175.658 145.694 175.658 144.662C175.658 144.038 175.76 143.48 175.964 142.988C176.18 142.496 176.516 142.106 176.972 141.818C177.428 141.518 178.028 141.368 178.772 141.368C179.516 141.368 180.116 141.518 180.572 141.818C181.028 142.106 181.358 142.496 181.562 142.988C181.778 143.48 181.886 144.038 181.886 144.662C181.886 145.694 181.634 146.534 181.13 147.182C180.638 147.818 179.972 148.28 179.132 148.568C178.292 148.856 177.362 149 176.342 149H174.668ZM174.668 149C174.548 149 174.458 148.916 174.398 148.748C174.338 148.568 174.308 148.334 174.308 148.046C174.308 147.758 174.338 147.53 174.398 147.362C174.458 147.182 174.548 147.092 174.668 147.092V149ZM188.6 149V147.092C188.732 147.092 188.822 147.182 188.87 147.362C188.93 147.53 188.96 147.758 188.96 148.046C188.96 148.334 188.93 148.568 188.87 148.748C188.822 148.916 188.732 149 188.6 149ZM200.559 149V147.092H201.063C201.195 147.092 201.321 147.056 201.441 146.984C201.561 146.912 201.675 146.81 201.783 146.678C201.891 146.534 201.981 146.354 202.053 146.138C202.137 145.91 202.197 145.646 202.233 145.346C202.281 145.034 202.305 144.686 202.305 144.302C202.305 143.714 202.251 143.246 202.143 142.898C202.047 142.55 201.909 142.268 201.729 142.052C201.549 141.836 201.333 141.638 201.081 141.458C201.081 141.326 201.129 141.176 201.225 141.008C201.333 140.84 201.489 140.69 201.693 140.558C201.909 140.426 202.167 140.36 202.467 140.36C202.839 140.36 203.163 140.468 203.439 140.684C203.715 140.9 203.937 141.194 204.105 141.566C204.285 141.926 204.417 142.346 204.501 142.826C204.597 143.294 204.645 143.792 204.645 144.32C204.645 145.772 204.333 146.918 203.709 147.758C203.085 148.586 202.203 149 201.063 149H200.559ZM194.007 149C193.323 149 192.717 148.85 192.189 148.55C191.661 148.25 191.241 147.836 190.929 147.308C190.629 146.78 190.479 146.186 190.479 145.526H192.819C192.819 145.766 192.861 146.012 192.945 146.264C193.029 146.504 193.161 146.702 193.341 146.858C193.521 147.014 193.743 147.092 194.007 147.092H194.403V149H194.007ZM188.607 149V147.092H189.291C189.567 147.092 189.789 147.014 189.957 146.858C190.137 146.702 190.269 146.504 190.353 146.264C190.437 146.012 190.479 145.766 190.479 145.526V142.538C190.479 142.262 190.563 141.998 190.731 141.746C190.899 141.482 191.205 141.35 191.649 141.35C192.093 141.35 192.399 141.482 192.567 141.746C192.735 141.998 192.819 142.262 192.819 142.538V145.526C192.819 146.186 192.663 146.78 192.351 147.308C192.051 147.836 191.637 148.25 191.109 148.55C190.581 148.85 189.975 149 189.291 149H188.607ZM199.803 149C199.131 149 198.525 148.85 197.985 148.55C197.457 148.25 197.037 147.836 196.725 147.308C196.425 146.78 196.275 146.186 196.275 145.526H198.615C198.615 145.766 198.657 146.012 198.741 146.264C198.825 146.504 198.957 146.702 199.137 146.858C199.317 147.014 199.539 147.092 199.803 147.092H200.559V149H199.803ZM194.403 149V147.092H195.087C195.363 147.092 195.585 147.014 195.753 146.858C195.933 146.702 196.065 146.504 196.149 146.264C196.233 146.012 196.275 145.766 196.275 145.526V142.106C196.275 141.83 196.359 141.566 196.527 141.314C196.695 141.05 197.001 140.918 197.445 140.918C197.889 140.918 198.195 141.05 198.363 141.314C198.531 141.566 198.615 141.83 198.615 142.106V145.526C198.615 146.186 198.459 146.78 198.147 147.308C197.847 147.836 197.433 148.25 196.905 148.55C196.377 148.85 195.771 149 195.087 149H194.403ZM188.607 149C188.487 149 188.397 148.916 188.337 148.748C188.277 148.568 188.247 148.334 188.247 148.046C188.247 147.758 188.277 147.53 188.337 147.362C188.397 147.182 188.487 147.092 188.607 147.092V149ZM198.903 139.19C198.591 139.19 198.315 139.076 198.075 138.848C197.847 138.62 197.733 138.344 197.733 138.02C197.733 137.696 197.847 137.42 198.075 137.192C198.315 136.964 198.591 136.85 198.903 136.85C199.239 136.85 199.515 136.964 199.731 137.192C199.959 137.42 200.073 137.696 200.073 138.02C200.073 138.344 199.959 138.62 199.731 138.848C199.515 139.076 199.239 139.19 198.903 139.19ZM195.987 139.19C195.675 139.19 195.399 139.076 195.159 138.848C194.931 138.62 194.817 138.344 194.817 138.02C194.817 137.696 194.931 137.42 195.159 137.192C195.399 136.964 195.675 136.85 195.987 136.85C196.311 136.85 196.587 136.964 196.815 137.192C197.043 137.42 197.157 137.696 197.157 138.02C197.157 138.344 197.043 138.62 196.815 138.848C196.587 139.076 196.311 139.19 195.987 139.19ZM197.445 136.508C197.133 136.508 196.875 136.406 196.671 136.202C196.467 135.986 196.365 135.728 196.365 135.428C196.365 135.116 196.467 134.858 196.671 134.654C196.875 134.45 197.133 134.348 197.445 134.348C197.745 134.348 197.997 134.45 198.201 134.654C198.417 134.858 198.525 135.11 198.525 135.41C198.525 135.722 198.417 135.986 198.201 136.202C197.997 136.406 197.745 136.508 197.445 136.508Z" fill="#2F2F2F"/>
<path d="M85.5521 180.126C84.6094 180.126 83.9188 179.851 83.4801 179.3C83.0414 178.749 82.8221 177.881 82.8221 176.696C82.8221 175.52 83.0368 174.657 83.4661 174.106C83.9048 173.555 84.6001 173.28 85.5521 173.28C86.5041 173.28 87.1994 173.56 87.6381 174.12C88.0768 174.671 88.2961 175.529 88.2961 176.696C88.2961 177.872 88.0721 178.74 87.6241 179.3C87.1854 179.851 86.4948 180.126 85.5521 180.126ZM85.5521 179.02C86.0841 179.02 86.4388 178.782 86.6161 178.306C86.7934 177.83 86.8821 177.242 86.8821 176.542C86.8821 175.889 86.7934 175.366 86.6161 174.974C86.4388 174.582 86.0841 174.386 85.5521 174.386C85.0388 174.386 84.6888 174.582 84.5021 174.974C84.3154 175.357 84.2221 175.884 84.2221 176.556C84.2221 178.199 84.6654 179.02 85.5521 179.02ZM84.5161 172.356C84.2921 172.356 84.0961 172.277 83.9281 172.118C83.7694 171.95 83.6901 171.754 83.6901 171.53C83.6901 171.297 83.7694 171.101 83.9281 170.942C84.0961 170.774 84.2921 170.69 84.5161 170.69C84.7494 170.69 84.9454 170.774 85.1041 170.942C85.2628 171.101 85.3421 171.297 85.3421 171.53C85.3421 171.754 85.2628 171.95 85.1041 172.118C84.9454 172.277 84.7494 172.356 84.5161 172.356ZM86.6161 172.356C86.3921 172.356 86.1961 172.277 86.0281 172.118C85.8694 171.95 85.7901 171.754 85.7901 171.53C85.7901 171.297 85.8694 171.101 86.0281 170.942C86.1961 170.774 86.3921 170.69 86.6161 170.69C86.8494 170.69 87.0454 170.774 87.2041 170.942C87.3628 171.101 87.4421 171.297 87.4421 171.53C87.4421 171.754 87.3628 171.95 87.2041 172.118C87.0454 172.277 86.8494 172.356 86.6161 172.356ZM96.7589 178.894V180H95.1629C94.6309 180 94.1876 179.874 93.8329 179.622C93.4316 179.874 92.9789 180 92.4749 180H90.4029C90.2442 180 90.1322 179.944 90.0669 179.832C90.0016 179.72 89.9689 179.599 89.9689 179.468C89.9689 179.319 90.0109 179.188 90.0949 179.076C90.1789 178.955 90.3189 178.894 90.5149 178.894H91.2849C92.1996 178.894 92.8716 178.661 93.3009 178.194C93.7302 177.727 93.9449 177.149 93.9449 176.458C93.9449 175.851 93.7956 175.357 93.4969 174.974C93.1982 174.582 92.8156 174.377 92.3489 174.358C91.7329 174.554 91.4249 175.002 91.4249 175.702C91.3129 175.721 91.2056 175.73 91.1029 175.73C90.9536 175.73 90.8276 175.711 90.7249 175.674C90.5476 175.637 90.4029 175.548 90.2909 175.408C90.1789 175.268 90.1229 175.081 90.1229 174.848C90.1229 174.372 90.3469 173.994 90.7949 173.714C91.2522 173.425 91.7796 173.28 92.3769 173.28C92.9649 173.28 93.4829 173.429 93.9309 173.728C94.3882 174.027 94.7382 174.419 94.9809 174.904C95.2329 175.38 95.3589 175.884 95.3589 176.416C95.3589 176.799 95.2936 177.219 95.1629 177.676C95.0416 178.124 94.8502 178.53 94.5889 178.894H96.7589ZM92.7549 174.274C92.7269 174.274 92.7036 174.279 92.6849 174.288L92.7549 174.274ZM104.152 178.894V180H103.368C102.845 180 102.402 179.879 102.038 179.636C101.664 179.897 101.156 180.028 100.512 180.028C99.9611 180.028 99.4804 179.925 99.0698 179.72C98.7524 179.907 98.3651 180 97.9078 180H96.7598V178.894H97.6698V175.828C97.6698 174.857 97.8891 174.19 98.3278 173.826C98.7758 173.462 99.4291 173.28 100.288 173.28C100.876 173.28 101.37 173.369 101.772 173.546C102.173 173.714 102.49 174.05 102.724 174.554C102.966 175.049 103.088 175.763 103.088 176.696C103.088 177.629 102.957 178.362 102.696 178.894H104.152ZM100.134 178.894C100.778 178.894 101.198 178.656 101.394 178.18C101.59 177.704 101.688 177.195 101.688 176.654C101.688 175.889 101.571 175.319 101.338 174.946C101.104 174.573 100.75 174.386 100.274 174.386C99.9191 174.386 99.6298 174.493 99.4058 174.708C99.1911 174.923 99.0838 175.277 99.0838 175.772V178.894H100.134ZM108.888 178.894V180H107.39C106.858 180 106.415 179.869 106.06 179.608C105.696 179.841 105.3 179.972 104.87 180H104.156V178.894H104.87C105.188 178.885 105.486 178.805 105.766 178.656V173.994C105.766 173.518 106 173.28 106.466 173.28C106.69 173.28 106.863 173.341 106.984 173.462C107.106 173.583 107.166 173.761 107.166 173.994V177.802C107.166 178.53 107.311 178.894 107.6 178.894H108.888ZM105.43 172.356C105.206 172.356 105.01 172.277 104.842 172.118C104.684 171.95 104.604 171.754 104.604 171.53C104.604 171.297 104.684 171.101 104.842 170.942C105.01 170.774 105.206 170.69 105.43 170.69C105.664 170.69 105.86 170.774 106.018 170.942C106.177 171.101 106.256 171.297 106.256 171.53C106.256 171.754 106.177 171.95 106.018 172.118C105.86 172.277 105.664 172.356 105.43 172.356ZM107.53 172.356C107.306 172.356 107.11 172.277 106.942 172.118C106.784 171.95 106.704 171.754 106.704 171.53C106.704 171.297 106.784 171.101 106.942 170.942C107.11 170.774 107.306 170.69 107.53 170.69C107.764 170.69 107.96 170.774 108.118 170.942C108.277 171.101 108.356 171.297 108.356 171.53C108.356 171.754 108.277 171.95 108.118 172.118C107.96 172.277 107.764 172.356 107.53 172.356ZM116.867 178.894V180H115.243C114.888 180 114.599 179.953 114.375 179.86C114.095 179.953 113.81 180 113.521 180H108.887V178.894H112.233L109.265 174.848C109.339 174.605 109.503 174.363 109.755 174.12C110.016 173.877 110.366 173.677 110.805 173.518C111.253 173.359 111.775 173.28 112.373 173.28C113.119 173.28 113.777 173.406 114.347 173.658C114.925 173.901 115.378 174.26 115.705 174.736C116.031 175.212 116.195 175.786 116.195 176.458C116.195 176.813 116.143 177.219 116.041 177.676C115.938 178.124 115.77 178.53 115.537 178.894H116.867ZM112.387 174.4C111.687 174.4 111.155 174.582 110.791 174.946L113.605 178.754C114.043 178.577 114.351 178.259 114.529 177.802C114.715 177.345 114.809 176.906 114.809 176.486C114.809 175.823 114.585 175.31 114.137 174.946C113.698 174.582 113.115 174.4 112.387 174.4ZM120.399 173.28C120.987 173.28 121.482 173.369 121.883 173.546C122.284 173.714 122.602 174.05 122.835 174.554C123.078 175.049 123.199 175.763 123.199 176.696C123.199 177.844 122.998 178.689 122.597 179.23C122.196 179.762 121.538 180.028 120.623 180.028C120.072 180.028 119.592 179.925 119.181 179.72C118.864 179.907 118.476 180 118.019 180H116.871V178.894H117.781V175.828C117.781 174.857 118 174.19 118.439 173.826C118.887 173.462 119.54 173.28 120.399 173.28ZM120.245 178.894C120.889 178.894 121.309 178.656 121.505 178.18C121.701 177.704 121.799 177.195 121.799 176.654C121.799 175.889 121.682 175.319 121.449 174.946C121.216 174.573 120.861 174.386 120.385 174.386C120.03 174.386 119.741 174.493 119.517 174.708C119.302 174.923 119.195 175.277 119.195 175.772V178.894H120.245ZM131.244 180.126C130.301 180.126 129.61 179.851 129.172 179.3C128.733 178.749 128.514 177.881 128.514 176.696C128.514 175.52 128.728 174.657 129.158 174.106C129.596 173.555 130.292 173.28 131.244 173.28C132.196 173.28 132.891 173.56 133.33 174.12C133.768 174.671 133.988 175.529 133.988 176.696C133.988 177.872 133.764 178.74 133.316 179.3C132.877 179.851 132.186 180.126 131.244 180.126ZM131.244 179.02C131.776 179.02 132.13 178.782 132.308 178.306C132.485 177.83 132.574 177.242 132.574 176.542C132.574 175.889 132.485 175.366 132.308 174.974C132.13 174.582 131.776 174.386 131.244 174.386C130.73 174.386 130.38 174.582 130.194 174.974C130.007 175.357 129.914 175.884 129.914 176.556C129.914 178.199 130.357 179.02 131.244 179.02ZM130.208 172.356C129.984 172.356 129.788 172.277 129.62 172.118C129.461 171.95 129.382 171.754 129.382 171.53C129.382 171.297 129.461 171.101 129.62 170.942C129.788 170.774 129.984 170.69 130.208 170.69C130.441 170.69 130.637 170.774 130.796 170.942C130.954 171.101 131.034 171.297 131.034 171.53C131.034 171.754 130.954 171.95 130.796 172.118C130.637 172.277 130.441 172.356 130.208 172.356ZM132.308 172.356C132.084 172.356 131.888 172.277 131.72 172.118C131.561 171.95 131.482 171.754 131.482 171.53C131.482 171.297 131.561 171.101 131.72 170.942C131.888 170.774 132.084 170.69 132.308 170.69C132.541 170.69 132.737 170.774 132.896 170.942C133.054 171.101 133.134 171.297 133.134 171.53C133.134 171.754 133.054 171.95 132.896 172.118C132.737 172.277 132.541 172.356 132.308 172.356ZM138.068 173.28C138.656 173.28 139.174 173.429 139.622 173.728C140.08 174.027 140.43 174.419 140.672 174.904C140.924 175.38 141.05 175.884 141.05 176.416C141.05 176.901 140.952 177.424 140.756 177.984C140.57 178.535 140.257 179.011 139.818 179.412C139.389 179.804 138.838 180 138.166 180H136.094C135.936 180 135.824 179.944 135.758 179.832C135.693 179.72 135.66 179.599 135.66 179.468C135.66 179.319 135.702 179.188 135.786 179.076C135.87 178.955 136.01 178.894 136.206 178.894H136.976C137.891 178.894 138.563 178.661 138.992 178.194C139.422 177.727 139.636 177.149 139.636 176.458C139.636 175.851 139.487 175.357 139.188 174.974C138.89 174.582 138.507 174.377 138.04 174.358C137.424 174.554 137.116 175.002 137.116 175.702C137.004 175.721 136.897 175.73 136.794 175.73C136.645 175.73 136.519 175.711 136.416 175.674C136.239 175.637 136.094 175.548 135.982 175.408C135.87 175.268 135.814 175.081 135.814 174.848C135.814 174.372 136.038 173.994 136.486 173.714C136.944 173.425 137.471 173.28 138.068 173.28ZM138.446 174.274C138.418 174.274 138.395 174.279 138.376 174.288L138.446 174.274ZM145.309 180C144.702 180 144.207 179.776 143.825 179.328C143.451 178.88 143.26 178.241 143.251 177.41V172.832C143.251 172.421 143.176 172.09 143.027 171.838C142.877 171.577 142.705 171.385 142.509 171.264C142.555 171.161 142.667 171.054 142.845 170.942C143.031 170.821 143.246 170.76 143.489 170.76C143.825 170.76 144.1 170.891 144.315 171.152C144.539 171.404 144.651 171.801 144.651 172.342V177.438C144.651 177.83 144.744 178.171 144.931 178.46C145.117 178.749 145.383 178.894 145.729 178.894H146.233V180H145.309ZM153.322 180H152.104C152.076 180.383 151.974 180.779 151.796 181.19C151.619 181.601 151.353 181.946 150.998 182.226C150.653 182.515 150.228 182.66 149.724 182.66C149.118 182.66 148.581 182.436 148.114 181.988C147.648 181.549 147.363 180.887 147.26 180H146.238V178.894H147.232V177.2C147.232 176.099 147.363 175.259 147.624 174.68C147.886 174.092 148.17 173.714 148.478 173.546C148.796 173.369 149.08 173.28 149.332 173.28C149.603 173.28 149.892 173.378 150.2 173.574C150.518 173.77 150.788 174.111 151.012 174.596C151.236 175.072 151.348 175.702 151.348 176.486C151.348 177.746 151.073 178.633 150.522 179.146C149.972 179.659 149.356 179.939 148.674 179.986C148.74 180.462 148.87 180.84 149.066 181.12C149.262 181.409 149.486 181.554 149.738 181.554C150 181.554 150.233 181.405 150.438 181.106C150.644 180.817 150.802 180.462 150.914 180.042C151.026 179.631 151.082 179.249 151.082 178.894H153.322V180ZM149.304 174.442C149.136 174.545 148.982 174.881 148.842 175.45C148.702 176.019 148.632 176.771 148.632 177.704V178.866C149.136 178.801 149.482 178.619 149.668 178.32C149.855 178.012 149.948 177.522 149.948 176.85C149.948 176.215 149.883 175.688 149.752 175.268C149.622 174.839 149.472 174.563 149.304 174.442ZM163.666 173.28C164.245 173.28 164.674 173.565 164.954 174.134C165.234 174.694 165.374 175.399 165.374 176.248C165.374 177.228 165.16 178.101 164.73 178.866C164.31 179.622 163.559 180 162.476 180H162.308C161.814 180 161.403 179.939 161.076 179.818C160.75 179.697 160.442 179.487 160.152 179.188C159.994 179.403 159.784 179.594 159.522 179.762C159.261 179.921 158.981 180 158.682 180H157.156C156.587 180 156.092 179.832 155.672 179.496C155.467 179.664 155.257 179.79 155.042 179.874C154.828 179.958 154.59 180 154.328 180H153.32V178.894H153.922C154.361 178.894 154.65 178.796 154.79 178.6C154.94 178.395 155.014 178.115 155.014 177.76V174.792C155.014 174.297 155.248 174.05 155.714 174.05C155.966 174.05 156.148 174.111 156.26 174.232C156.372 174.353 156.428 174.54 156.428 174.792V177.536C156.428 178.003 156.466 178.343 156.54 178.558C156.615 178.773 156.774 178.885 157.016 178.894H158.178C158.598 178.894 158.888 178.796 159.046 178.6C159.205 178.404 159.284 178.147 159.284 177.83V174.47C159.284 174.218 159.35 174.031 159.48 173.91C159.62 173.779 159.802 173.714 160.026 173.714C160.474 173.714 160.698 173.966 160.698 174.47V177.242C160.698 177.671 160.759 178.054 160.88 178.39C161.002 178.726 161.23 178.894 161.566 178.894H162.574C163.116 178.894 163.48 178.642 163.666 178.138C163.862 177.634 163.96 177.13 163.96 176.626C163.96 175.273 163.578 174.297 162.812 173.7C162.971 173.42 163.256 173.28 163.666 173.28ZM160.026 168.968C160.241 168.968 160.423 169.043 160.572 169.192C160.722 169.341 160.796 169.523 160.796 169.738C160.796 169.943 160.722 170.125 160.572 170.284C160.423 170.433 160.241 170.508 160.026 170.508C159.812 170.508 159.63 170.433 159.48 170.284C159.331 170.135 159.256 169.953 159.256 169.738C159.256 169.523 159.331 169.341 159.48 169.192C159.63 169.043 159.812 168.968 160.026 168.968ZM158.976 170.704C159.21 170.704 159.406 170.788 159.564 170.956C159.723 171.115 159.802 171.306 159.802 171.53C159.802 171.763 159.723 171.964 159.564 172.132C159.406 172.291 159.21 172.37 158.976 172.37C158.752 172.37 158.556 172.291 158.388 172.132C158.23 171.964 158.15 171.763 158.15 171.53C158.15 171.306 158.23 171.115 158.388 170.956C158.556 170.788 158.752 170.704 158.976 170.704ZM161.076 170.704C161.31 170.704 161.506 170.788 161.664 170.956C161.823 171.115 161.902 171.306 161.902 171.53C161.902 171.763 161.823 171.964 161.664 172.132C161.506 172.291 161.31 172.37 161.076 172.37C160.852 172.37 160.656 172.291 160.488 172.132C160.33 171.964 160.25 171.763 160.25 171.53C160.25 171.306 160.33 171.115 160.488 170.956C160.656 170.788 160.852 170.704 161.076 170.704ZM175.605 183.304C173.673 183.304 172.376 182.889 171.713 182.058C171.06 181.237 170.733 180.355 170.733 179.412C170.733 178.927 170.803 178.507 170.943 178.152C171.093 177.797 171.284 177.531 171.517 177.354C171.751 177.177 172.007 177.088 172.287 177.088C172.483 177.088 172.647 177.135 172.777 177.228C172.917 177.312 173.006 177.41 173.043 177.522C172.801 177.718 172.591 178.026 172.413 178.446C172.245 178.866 172.161 179.3 172.161 179.748C172.161 180.457 172.432 181.041 172.973 181.498C173.515 181.965 174.443 182.198 175.759 182.198C176.534 182.198 177.183 182.1 177.705 181.904C178.237 181.717 178.634 181.456 178.895 181.12C179.157 180.793 179.287 180.42 179.287 180H178.909C178.443 180 178.102 179.902 177.887 179.706C177.673 179.501 177.565 179.253 177.565 178.964C177.565 178.805 177.593 178.656 177.649 178.516C177.771 178.609 177.943 178.698 178.167 178.782C178.391 178.857 178.634 178.894 178.895 178.894H182.661V180H180.673C180.673 180.532 180.51 181.05 180.183 181.554C179.866 182.058 179.348 182.473 178.629 182.8C177.92 183.136 177.015 183.304 175.913 183.304H175.605ZM187.28 178.894V180H186.104C185.563 180 185.129 179.879 184.802 179.636C184.475 179.879 184.093 180 183.654 180H182.66V178.894H183.584C183.883 178.894 184.074 178.768 184.158 178.516C184.251 178.255 184.298 177.891 184.298 177.424V172.832C184.298 172.431 184.223 172.099 184.074 171.838C183.925 171.577 183.757 171.385 183.57 171.264C183.617 171.161 183.729 171.054 183.906 170.942C184.093 170.821 184.303 170.76 184.536 170.76C184.872 170.76 185.152 170.891 185.376 171.152C185.6 171.404 185.712 171.801 185.712 172.342V177.41C185.712 177.989 185.609 178.483 185.404 178.894H187.28ZM193.077 178.894C193.236 178.894 193.348 178.955 193.413 179.076C193.479 179.188 193.511 179.309 193.511 179.44C193.511 179.58 193.479 179.711 193.413 179.832C193.348 179.944 193.236 180 193.077 180H191.061C190.501 180 190.058 179.874 189.731 179.622C189.377 179.846 188.966 179.972 188.499 180H187.281V178.88H189.003C188.425 178.171 188.135 177.377 188.135 176.5C188.135 175.903 188.257 175.361 188.499 174.876C188.751 174.381 189.106 173.994 189.563 173.714C190.03 173.425 190.576 173.28 191.201 173.28C191.78 173.28 192.284 173.401 192.713 173.644C193.143 173.877 193.357 174.255 193.357 174.778C193.357 175.086 193.278 175.315 193.119 175.464C192.97 175.604 192.783 175.674 192.559 175.674C192.391 175.674 192.219 175.641 192.041 175.576C192.041 175.175 191.953 174.89 191.775 174.722C191.607 174.545 191.36 174.419 191.033 174.344C190.613 174.391 190.254 174.605 189.955 174.988C189.666 175.361 189.521 175.842 189.521 176.43C189.521 177.167 189.736 177.765 190.165 178.222C190.604 178.67 191.281 178.894 192.195 178.894H193.077ZM191.411 174.358C191.374 174.349 191.318 174.344 191.243 174.344L191.411 174.358ZM207.998 178.894V180H207.774C207.317 180 206.929 179.907 206.612 179.72C206.584 180.849 206.267 181.727 205.66 182.352C205.053 182.987 204.125 183.304 202.874 183.304C201.959 183.304 201.199 183.131 200.592 182.786C199.985 182.45 199.537 181.997 199.248 181.428C198.968 180.868 198.828 180.247 198.828 179.566C198.828 179.109 198.893 178.665 199.024 178.236C199.155 177.797 199.346 177.438 199.598 177.158C199.859 176.878 200.167 176.738 200.522 176.738C200.811 176.738 201.082 176.827 201.334 177.004C201.222 177.088 201.082 177.247 200.914 177.48C200.755 177.713 200.611 178.021 200.48 178.404C200.349 178.777 200.284 179.197 200.284 179.664C200.284 180.271 200.419 180.761 200.69 181.134C200.97 181.517 201.315 181.787 201.726 181.946C202.137 182.114 202.557 182.198 202.986 182.198C203.891 182.198 204.489 181.913 204.778 181.344C205.067 180.775 205.212 180.093 205.212 179.3V172.832C205.212 172.421 205.137 172.09 204.988 171.838C204.839 171.577 204.666 171.385 204.47 171.264C204.526 171.152 204.643 171.04 204.82 170.928C204.997 170.816 205.203 170.76 205.436 170.76C205.772 170.76 206.052 170.891 206.276 171.152C206.509 171.404 206.626 171.801 206.626 172.342V178.894H207.998ZM218.914 178.894V180H217.388C216.847 180 216.403 179.879 216.058 179.636C215.647 179.879 215.143 180 214.546 180H207.994V178.894H209.38V175.632C209.38 175.389 209.31 175.156 209.17 174.932C209.03 174.708 208.876 174.54 208.708 174.428C208.783 174.316 208.904 174.218 209.072 174.134C209.24 174.041 209.427 173.994 209.632 173.994C210.033 173.994 210.337 174.162 210.542 174.498C210.813 174.181 211.223 173.901 211.774 173.658C212.325 173.406 212.95 173.28 213.65 173.28C214.257 173.28 214.845 173.387 215.414 173.602C215.983 173.817 216.459 174.181 216.842 174.694C217.225 175.207 217.416 175.879 217.416 176.71C217.416 177.597 217.229 178.325 216.856 178.894H218.914ZM214.168 178.894C214.849 178.894 215.325 178.665 215.596 178.208C215.876 177.741 216.016 177.256 216.016 176.752C216.016 176.192 215.881 175.735 215.61 175.38C215.339 175.025 215.003 174.773 214.602 174.624C214.201 174.465 213.79 174.386 213.37 174.386C212.81 174.386 212.283 174.507 211.788 174.75C211.293 174.983 210.957 175.249 210.78 175.548V178.894H214.168ZM218.918 178.894H222.222C222.595 178.894 222.936 178.852 223.244 178.768C223.552 178.684 223.818 178.483 224.042 178.166C224.275 177.849 224.392 177.377 224.392 176.752C224.392 175.94 224.154 175.343 223.678 174.96C223.211 174.577 222.455 174.386 221.41 174.386L220.444 174.4C219.837 174.4 219.492 174.083 219.408 173.448C219.399 173.401 219.394 173.336 219.394 173.252C219.394 173.084 219.413 172.981 219.45 172.944C219.711 173.205 220.089 173.336 220.584 173.336L221.102 173.308C221.457 173.289 221.741 173.28 221.956 173.28C223.188 173.28 224.135 173.579 224.798 174.176C225.461 174.773 225.792 175.618 225.792 176.71C225.792 177.653 225.554 178.437 225.078 179.062C224.602 179.687 223.883 180 222.922 180H218.918V178.894ZM228.675 180C228.395 180 228.208 179.921 228.115 179.762C228.031 179.603 227.989 179.379 227.989 179.09V172.832C227.989 172.421 227.914 172.09 227.765 171.838C227.616 171.577 227.443 171.385 227.247 171.264C227.294 171.161 227.406 171.054 227.583 170.942C227.77 170.821 227.984 170.76 228.227 170.76C228.563 170.76 228.838 170.891 229.053 171.152C229.277 171.404 229.389 171.801 229.389 172.342V179.09C229.389 179.379 229.342 179.603 229.249 179.762C229.156 179.921 228.964 180 228.675 180Z" fill="#585858"/>
</g>
<defs>
<filter id="filter0_dd_15_6" x="0" y="0" width="312" height="262" filterUnits="userSpaceOnUse" color-interpolation-filters="sRGB">
<feFlood flood-opacity="0" result="BackgroundImageFix"/>
<feColorMatrix in="SourceAlpha" type="matrix" values="0 0 0 0 0 0 0 0 0 0 0 0 0 0 0 0 0 0 127 0" result="hardAlpha"/>
<feMorphology radius="5" operator="erode" in="SourceAlpha" result="effect1_dropShadow_15_6"/>
<feOffset dy="10"/>
<feGaussianBlur stdDeviation="5"/>
<feComposite in2="hardAlpha" operator="out"/>
<feColorMatrix type="matrix" values="0 0 0 0 0 0 0 0 0 0 0 0 0 0 0 0 0 0 0.04 0"/>
<feBlend mode="normal" in2="BackgroundImageFix" result="effect1_dropShadow_15_6"/>
<feColorMatrix in="SourceAlpha" type="matrix" values="0 0 0 0 0 0 0 0 0 0 0 0 0 0 0 0 0 0 127 0" result="hardAlpha"/>
<feMorphology radius="5" operator="erode" in="SourceAlpha" result="effect2_dropShadow_15_6"/>
<feOffset dy="20"/>
<feGaussianBlur stdDeviation="12.5"/>
<feComposite in2="hardAlpha" operator="out"/>
<feColorMatrix type="matrix" values="0 0 0 0 0 0 0 0 0 0 0 0 0 0 0 0 0 0 0.1 0"/>
<feBlend mode="normal" in2="effect1_dropShadow_15_6" result="effect2_dropShadow_15_6"/>
<feBlend mode="normal" in="SourceGraphic" in2="effect2_dropShadow_15_6" result="shape"/>
</filter>
<linearGradient id="paint0_linear_15_6" x1="168.374" y1="121" x2="141.251" y2="44.5081" gradientUnits="userSpaceOnUse">
<stop offset="0.0625" stop-color="#6F7354"/>
<stop offset="1" stop-color="#D1D6AA"/>
</linearGradient>
<linearGradient id="paint1_linear_15_6" x1="98.2308" y1="28.2812" x2="163.559" y2="144.887" gradientUnits="userSpaceOnUse">
<stop stop-color="white"/>
<stop offset="1" stop-color="white" stop-opacity="0"/>
</linearGradient>
<linearGradient id="paint2_linear_15_6" x1="156" y1="48.9457" x2="156" y2="109.378" gradientUnits="userSpaceOnUse">
<stop stop-color="white"/>
<stop offset="0.0001" stop-color="white" stop-opacity="0.81"/>
<stop offset="1" stop-color="white" stop-opacity="0"/>
</linearGradient>
</defs>
</svg>
