<svg width="312" height="262" viewBox="0 0 312 262" fill="none" xmlns="http://www.w3.org/2000/svg">
<g filter="url(#filter0_dd_16_342)">
<rect x="21" y="1" width="270" height="220" rx="31" fill="#FFFCF4" stroke="#6F7354" stroke-width="2" stroke-linecap="round" stroke-linejoin="round" stroke-dasharray="31 31"/>
<path d="M137.646 85.7553C142.902 81.4072 149.512 79.0322 156.334 79.041C163.43 79.041 169.941 81.5585 175.022 85.7553L180.879 101.675L175.022 117.752H137.646L132.52 101.675L137.646 85.7553Z" fill="url(#paint0_linear_16_342)"/>
<path d="M156.014 91.9462C156.019 95.6811 159.167 98.6925 163.008 98.6925V94.3863C163.008 92.9491 162.536 91.5517 161.665 90.4084C165.264 89.8771 168.027 86.8684 168.027 83.2456C168.027 79.249 164.664 76 160.526 76H151.502C147.364 76 144 79.249 144 83.2456C144 86.8684 146.763 89.8771 150.362 90.4084C149.491 91.5517 149.019 92.9491 149.019 94.3863V98.6925C152.861 98.6925 156.008 95.6811 156.014 91.9462Z" fill="url(#paint1_linear_16_342)"/>
<path d="M126.967 108.408C126.914 99.304 131.191 91.1347 137.646 85.7152V117.698L127.021 117.752L126.967 108.408ZM175.022 117.752V85.7152C181.536 91.116 185.701 99.272 185.701 108.392V117.752H175.022Z" fill="url(#paint2_linear_16_342)"/>
<path d="M187.035 99.3309C188.503 99.3309 189.705 100.519 189.705 101.969V108.007H184.365V101.969C184.366 101.62 184.436 101.274 184.57 100.953C184.705 100.631 184.902 100.339 185.151 100.094C185.399 99.8484 185.693 99.6548 186.017 99.5239C186.34 99.3929 186.686 99.3274 187.035 99.3309Z" fill="url(#paint3_linear_16_342)"/>
<path d="M180.927 93.0569C180.281 96.7153 180.187 100.45 180.649 104.136L182.118 115.803C182.225 116.55 182.865 117.138 183.613 117.138C184.387 117.138 185.028 116.577 185.108 115.803L186.576 104.136C187.024 100.449 186.928 96.7161 186.291 93.0569L183.562 92.0024L180.927 93.0569Z" fill="url(#paint4_linear_16_342)"/>
<path d="M186.306 93.057C185.986 91.2683 185.727 89.4796 185.167 87.7443H181.963C181.376 89.4796 181.234 91.2683 180.914 93.057H186.306Z" fill="#E6E6E6"/>
<path d="M179.518 82.3781L181.394 81.8361C182.195 81.8361 183.218 83.0054 183.218 83.8064C183.218 84.981 183.557 85.1733 184.732 85.1733C185.858 85.1999 186.867 85.1733 186.985 84.0894C186.992 84.1872 186.995 84.2842 186.995 84.3803C186.995 86.5962 185.207 88.3849 182.991 88.3849C182.303 88.3856 181.627 88.2089 181.028 87.872C180.428 87.5351 179.926 87.0493 179.569 86.4616C179.212 85.8739 179.013 85.2041 178.99 84.5168C178.968 83.8296 179.123 83.1481 179.44 82.5382L179.518 82.3781Z" fill="url(#paint5_linear_16_342)"/>
<path d="M187.449 77.8929C187.3 77.7678 187.11 77.7013 186.915 77.706C183.685 77.9196 180.962 79.4414 179.52 82.378H181.309C182.11 82.378 182.75 83.0188 182.75 83.8197C182.75 84.9943 183.658 86.0088 184.833 86.0088C186.007 86.0355 186.942 85.1011 186.995 83.9532C186.995 83.8197 186.968 83.6862 186.942 83.5527V83.526C186.541 81.7907 186.808 80.3224 187.636 78.854C187.796 78.5337 187.716 78.1332 187.449 77.8929Z" fill="url(#paint6_linear_16_342)"/>
<path d="M179.566 103.709C178.567 103.709 177.718 104.563 177.691 105.658C177.667 106.379 178.009 107.019 178.519 107.393C178.261 107.585 178.052 107.835 177.909 108.122C177.765 108.41 177.69 108.727 177.691 109.048C177.691 109.743 178.009 110.357 178.519 110.704C178.261 110.896 178.052 111.145 177.909 111.433C177.765 111.72 177.69 112.037 177.691 112.359C177.691 113.053 178.009 113.667 178.519 114.014C178.255 114.219 178.043 114.482 177.899 114.783C177.755 115.085 177.684 115.416 177.691 115.749C177.718 116.844 178.567 117.698 179.566 117.698H187.591C188.757 117.698 189.705 116.657 189.705 115.376V106.005C189.705 104.723 188.757 103.682 187.591 103.682H179.566V103.709Z" fill="url(#paint7_linear_16_342)"/>
<path d="M126.75 117.752H152.395L146.655 102.001C145.83 99.7406 144.375 97.7641 142.463 96.3046C140.55 94.8451 138.259 93.9637 135.862 93.7645C135.528 93.7378 134.935 93.826 134.599 93.8607C127.327 94.6108 121.171 102.374 124.134 110.57L126.75 117.752Z" fill="#888C69"/>
<path d="M126.75 117.752H152.395L146.655 102.001C145.83 99.7406 144.375 97.7641 142.463 96.3046C140.55 94.8451 138.259 93.9637 135.862 93.7645C135.528 93.7378 134.935 93.826 134.599 93.8607C127.327 94.6108 121.171 102.374 124.134 110.57L126.75 117.752Z" fill="url(#paint8_linear_16_342)"/>
<path d="M136.004 93.7776C135.63 93.7509 135.23 93.7242 134.856 93.7242C126.153 93.7242 120.093 102.374 123.056 110.57L125.672 117.752H128.048L125.432 110.57C122.602 102.774 127.968 94.5251 136.004 93.7776Z" fill="url(#paint9_linear_16_342)"/>
<path d="M135.617 105.044C136.495 105.044 137.337 104.695 137.957 104.074C138.578 103.453 138.927 102.611 138.927 101.733C138.927 100.855 138.578 100.013 137.957 99.3925C137.337 98.7717 136.495 98.4229 135.617 98.4229C134.739 98.4229 133.897 98.7717 133.276 99.3925C132.655 100.013 132.306 100.855 132.306 101.733C132.306 102.611 132.655 103.453 133.276 104.074C133.897 104.695 134.739 105.044 135.617 105.044Z" fill="#6F7354"/>
<path d="M143.626 113.053C144.504 113.053 145.346 112.704 145.967 112.083C146.588 111.463 146.937 110.621 146.937 109.743C146.937 108.865 146.588 108.023 145.967 107.402C145.346 106.781 144.504 106.432 143.626 106.432C142.748 106.432 141.906 106.781 141.285 107.402C140.665 108.023 140.316 108.865 140.316 109.743C140.316 110.621 140.665 111.463 141.285 112.083C141.906 112.704 142.748 113.053 143.626 113.053Z" fill="#FFFCF4"/>
<path d="M132.947 115.429C133.825 115.429 134.667 115.08 135.288 114.459C135.909 113.839 136.258 112.997 136.258 112.119C136.258 111.241 135.909 110.399 135.288 109.778C134.667 109.157 133.825 108.808 132.947 108.808C132.069 108.808 131.227 109.157 130.606 109.778C129.986 110.399 129.637 111.241 129.637 112.119C129.637 112.997 129.986 113.839 130.606 114.459C131.227 115.08 132.069 115.429 132.947 115.429Z" fill="#49453C"/>
<path d="M156.334 87.0501C153.397 87.0501 150.994 84.626 150.994 81.6653V76.4167C150.994 73.4533 153.397 71.0319 156.334 71.0319C159.27 71.0319 161.673 73.456 161.673 76.4167V81.6653C161.673 84.6287 159.27 87.0501 156.334 87.0501ZM147.657 66.0262C147.657 67.1768 147.2 68.2802 146.386 69.0938C145.573 69.9074 144.469 70.3645 143.319 70.3645C142.168 70.3645 141.065 69.9074 140.251 69.0938C139.438 68.2802 138.981 67.1768 138.981 66.0262C138.981 64.8756 139.438 63.7722 140.251 62.9586C141.065 62.145 142.168 61.6879 143.319 61.6879C144.469 61.6879 145.573 62.145 146.386 62.9586C147.2 63.7722 147.657 64.8756 147.657 66.0262ZM174.354 66.0262C174.354 67.1768 173.897 68.2802 173.083 69.0938C172.27 69.9074 171.166 70.3645 170.016 70.3645C168.865 70.3645 167.762 69.9074 166.948 69.0938C166.135 68.2802 165.678 67.1768 165.678 66.0262C165.678 64.8756 166.135 63.7722 166.948 62.9586C167.762 62.145 168.865 61.6879 170.016 61.6879C171.166 61.6879 172.27 62.145 173.083 62.9586C173.897 63.7722 174.354 64.8756 174.354 66.0262Z" fill="#F4C6AD"/>
<path d="M156.334 87.0501C153.397 87.0501 150.994 84.626 150.994 81.6653V76.4167C150.994 73.4533 153.397 71.0319 156.334 71.0319C159.27 71.0319 161.673 73.456 161.673 76.4167V81.6653C161.673 84.6287 159.27 87.0501 156.334 87.0501ZM147.657 66.0262C147.657 67.1768 147.2 68.2802 146.386 69.0938C145.573 69.9074 144.469 70.3645 143.319 70.3645C142.168 70.3645 141.065 69.9074 140.251 69.0938C139.438 68.2802 138.981 67.1768 138.981 66.0262C138.981 64.8756 139.438 63.7722 140.251 62.9586C141.065 62.145 142.168 61.6879 143.319 61.6879C144.469 61.6879 145.573 62.145 146.386 62.9586C147.2 63.7722 147.657 64.8756 147.657 66.0262ZM174.354 66.0262C174.354 67.1768 173.897 68.2802 173.083 69.0938C172.27 69.9074 171.166 70.3645 170.016 70.3645C168.865 70.3645 167.762 69.9074 166.948 69.0938C166.135 68.2802 165.678 67.1768 165.678 66.0262C165.678 64.8756 166.135 63.7722 166.948 62.9586C167.762 62.145 168.865 61.6879 170.016 61.6879C171.166 61.6879 172.27 62.145 173.083 62.9586C173.897 63.7722 174.354 64.8756 174.354 66.0262Z" fill="url(#paint10_linear_16_342)"/>
<path d="M155.079 45.6697C147.291 45.6697 141.111 52.0957 141.687 59.6696L142.779 74.8522C143.26 79.6257 147.109 83.0456 151.838 83.0456H160.864C165.562 83.0456 169.439 79.655 169.893 74.8816L170.982 59.7016C171.529 52.125 165.378 45.699 157.593 45.699H155.079V45.6697Z" fill="#FFD7C2"/>
<path d="M155.079 45.6697C147.291 45.6697 141.111 52.0957 141.687 59.6696L142.779 74.8522C143.26 79.6257 147.109 83.0456 151.838 83.0456H160.864C165.562 83.0456 169.439 79.655 169.893 74.8816L170.982 59.7016C171.529 52.125 165.378 45.699 157.593 45.699H155.079V45.6697Z" fill="url(#paint11_linear_16_342)"/>
<path d="M169.089 49.3242L170.2 49.8928C172.253 50.918 173.393 53.1979 172.909 55.4191L171.425 63.5724C171.355 63.9581 171.156 64.3086 170.862 64.567C170.567 64.8254 170.193 64.9764 169.802 64.9954C169.802 64.9954 169.973 62.7154 170.058 61.2337C170.083 60.8561 170.022 60.4777 169.878 60.1274C169.735 59.7771 169.513 59.4643 169.231 59.2128L168.718 58.7563C168.385 58.4644 168.119 58.1047 167.937 57.7013C167.755 57.2978 167.662 56.8601 167.663 56.4176V54.1403C167.666 53.8272 167.563 53.5222 167.372 53.2741C167.181 53.0259 166.912 52.8488 166.609 52.7708C164.927 52.3436 161.31 51.6308 156.323 51.6308C151.336 51.6308 147.716 52.3436 146.034 52.7708C145.729 52.8467 145.46 53.0234 145.269 53.2721C145.078 53.5208 144.977 53.8268 144.982 54.1403V56.4176C144.982 57.3306 144.608 58.1582 143.925 58.783L143.444 59.2101C143.164 59.4643 142.944 59.778 142.801 60.1282C142.658 60.4783 142.595 60.8561 142.616 61.2337C142.699 62.7154 142.873 65.0247 142.873 65.0247C142.477 65.0079 142.098 64.8581 141.797 64.5994C141.497 64.3407 141.293 63.9883 141.217 63.5991L139.736 55.4512C139.528 54.3539 139.686 53.2186 140.185 52.2197C140.685 51.2209 141.499 50.4137 142.502 49.9222L143.612 49.3509C144.411 48.9522 145.123 48.4396 145.748 47.8131L158.544 44.193C159.614 43.8242 160.765 43.7623 161.868 44.0143C162.971 44.2662 163.982 44.822 164.786 45.6186L166.951 47.7838C167.577 48.4103 168.29 48.9237 169.089 49.3242Z" fill="#212121"/>
<path d="M137.633 52.9313C137.633 51.7299 138.247 50.6354 139.288 50.0213L140.009 49.5942C147.11 45.2692 155.28 43 163.609 43C169.91 43 175.009 48.0991 175.009 54.3996C175.009 55.4675 174.128 56.3485 173.06 56.3485H141.05C139.155 56.3485 137.633 54.8268 137.633 52.9313Z" fill="url(#paint12_linear_16_342)"/>
<path d="M109.111 145.752C108.439 145.752 107.833 145.602 107.293 145.302C106.765 145.002 106.345 144.588 106.033 144.06C105.733 143.532 105.583 142.938 105.583 142.278H107.923C107.923 142.518 107.965 142.764 108.049 143.016C108.133 143.256 108.265 143.454 108.445 143.61C108.625 143.766 108.847 143.844 109.111 143.844H110.029V145.752H109.111ZM103.045 150C101.917 150 100.939 149.808 100.111 149.424C99.2826 149.052 98.6406 148.506 98.1846 147.786C97.7406 147.078 97.5186 146.22 97.5186 145.212C97.5186 144.78 97.5606 144.348 97.6446 143.916C97.7406 143.484 97.8786 143.088 98.0586 142.728C98.2386 142.368 98.4606 142.08 98.7246 141.864C99.0006 141.648 99.3246 141.54 99.6966 141.54C100.009 141.54 100.267 141.606 100.471 141.738C100.675 141.87 100.825 142.02 100.921 142.188C101.029 142.356 101.083 142.506 101.083 142.638C100.843 142.818 100.627 143.016 100.435 143.232C100.255 143.436 100.111 143.712 100.003 144.06C99.9066 144.396 99.8586 144.852 99.8586 145.428C99.8586 146.292 100.129 146.952 100.669 147.408C101.221 147.864 102.025 148.092 103.081 148.092C103.993 148.092 104.635 147.888 105.007 147.48C105.391 147.084 105.583 146.376 105.583 145.356V138.336C105.583 138.036 105.667 137.76 105.835 137.508C106.003 137.244 106.309 137.112 106.753 137.112C107.197 137.112 107.503 137.244 107.671 137.508C107.839 137.76 107.923 138.036 107.923 138.336V145.356C107.923 146.772 107.539 147.9 106.771 148.74C106.003 149.58 104.761 150 103.045 150ZM110.029 145.752V143.844C110.161 143.844 110.251 143.934 110.299 144.114C110.359 144.282 110.389 144.51 110.389 144.798C110.389 145.086 110.359 145.32 110.299 145.5C110.251 145.668 110.161 145.752 110.029 145.752ZM102.739 137.112C102.367 137.112 102.049 136.986 101.785 136.734C101.533 136.47 101.407 136.164 101.407 135.816C101.407 135.456 101.533 135.15 101.785 134.898C102.049 134.646 102.367 134.52 102.739 134.52C103.087 134.52 103.387 134.646 103.639 134.898C103.903 135.15 104.035 135.456 104.035 135.816C104.035 136.164 103.903 136.47 103.639 136.734C103.387 136.986 103.087 137.112 102.739 137.112ZM110.024 145.752V143.844H110.942C111.218 143.844 111.44 143.766 111.608 143.61C111.788 143.454 111.92 143.256 112.004 143.016C112.088 142.764 112.13 142.518 112.13 142.278V138.3C112.13 138.024 112.214 137.76 112.382 137.508C112.55 137.244 112.856 137.112 113.3 137.112C113.744 137.112 114.05 137.244 114.218 137.508C114.386 137.76 114.47 138.024 114.47 138.3V142.278C114.47 142.938 114.314 143.532 114.002 144.06C113.702 144.588 113.288 145.002 112.76 145.302C112.232 145.602 111.626 145.752 110.942 145.752H110.024ZM115.658 145.752C114.986 145.752 114.38 145.602 113.84 145.302C113.312 145.002 112.892 144.588 112.58 144.06C112.28 143.532 112.13 142.938 112.13 142.278H114.47C114.47 142.518 114.512 142.764 114.596 143.016C114.68 143.256 114.812 143.454 114.992 143.61C115.172 143.766 115.394 143.844 115.658 143.844H116.576V145.752H115.658ZM116.576 145.752V143.844C116.708 143.844 116.798 143.934 116.846 144.114C116.906 144.282 116.936 144.51 116.936 144.798C116.936 145.086 116.906 145.32 116.846 145.5C116.798 145.668 116.708 145.752 116.576 145.752ZM110.024 145.752C109.904 145.752 109.814 145.668 109.754 145.5C109.694 145.32 109.664 145.086 109.664 144.798C109.664 144.51 109.694 144.282 109.754 144.114C109.814 143.934 109.904 143.844 110.024 143.844V145.752ZM114.758 149.622C114.446 149.622 114.17 149.508 113.93 149.28C113.702 149.052 113.588 148.776 113.588 148.452C113.588 148.128 113.702 147.852 113.93 147.624C114.17 147.396 114.446 147.282 114.758 147.282C115.094 147.282 115.37 147.396 115.586 147.624C115.814 147.852 115.928 148.128 115.928 148.452C115.928 148.776 115.814 149.052 115.586 149.28C115.37 149.508 115.094 149.622 114.758 149.622ZM111.842 149.622C111.53 149.622 111.254 149.508 111.014 149.28C110.786 149.052 110.672 148.776 110.672 148.452C110.672 148.128 110.786 147.852 111.014 147.624C111.254 147.396 111.53 147.282 111.842 147.282C112.166 147.282 112.442 147.396 112.67 147.624C112.898 147.852 113.012 148.128 113.012 148.452C113.012 148.776 112.898 149.052 112.67 149.28C112.442 149.508 112.166 149.622 111.842 149.622ZM116.581 145.752V143.844H121.477C121.885 143.844 122.197 143.718 122.413 143.466C122.629 143.214 122.737 142.848 122.737 142.368V139.11C122.653 139.086 122.533 139.068 122.377 139.056C122.221 139.032 122.053 139.02 121.873 139.02C121.249 139.02 120.781 139.206 120.469 139.578C120.157 139.95 120.001 140.562 120.001 141.414C120.001 142.182 120.139 142.764 120.415 143.16C120.703 143.556 121.123 143.784 121.675 143.844L121.441 145.734C120.745 145.662 120.109 145.464 119.533 145.14C118.969 144.804 118.513 144.33 118.165 143.718C117.829 143.094 117.661 142.326 117.661 141.414C117.661 140.058 118.039 139.002 118.795 138.246C119.563 137.49 120.589 137.112 121.873 137.112C122.821 137.112 123.589 137.304 124.177 137.688C124.777 138.06 125.077 138.534 125.077 139.11V142.368C125.077 143.016 124.921 143.598 124.609 144.114C124.309 144.618 123.889 145.02 123.349 145.32C122.809 145.608 122.185 145.752 121.477 145.752H116.581ZM116.581 145.752C116.461 145.752 116.371 145.668 116.311 145.5C116.251 145.32 116.221 145.086 116.221 144.798C116.221 144.51 116.251 144.282 116.311 144.114C116.371 143.934 116.461 143.844 116.581 143.844V145.752ZM121.891 135.942C121.519 135.942 121.201 135.816 120.937 135.564C120.685 135.3 120.559 134.994 120.559 134.646C120.559 134.286 120.685 133.98 120.937 133.728C121.201 133.476 121.519 133.35 121.891 133.35C122.239 133.35 122.539 133.476 122.791 133.728C123.055 133.98 123.187 134.286 123.187 134.646C123.187 134.994 123.055 135.3 122.791 135.564C122.539 135.816 122.239 135.942 121.891 135.942ZM130.173 145.752V143.844H132.027V145.752H130.173ZM127.977 149.874C127.677 149.874 127.425 149.808 127.221 149.676C127.017 149.544 126.861 149.388 126.753 149.208C126.657 149.04 126.609 148.896 126.609 148.776C126.861 148.584 127.077 148.368 127.257 148.128C127.437 147.888 127.575 147.576 127.671 147.192C127.779 146.82 127.833 146.34 127.833 145.752V138.228C127.833 137.88 127.941 137.61 128.157 137.418C128.385 137.214 128.667 137.112 129.003 137.112C129.351 137.112 129.633 137.214 129.849 137.418C130.065 137.61 130.173 137.88 130.173 138.228V145.752C130.173 146.28 130.125 146.79 130.029 147.282C129.945 147.774 129.813 148.212 129.633 148.596C129.465 148.992 129.243 149.304 128.967 149.532C128.691 149.76 128.361 149.874 127.977 149.874ZM132.027 145.752V143.844C132.159 143.844 132.249 143.934 132.297 144.114C132.357 144.282 132.387 144.51 132.387 144.798C132.387 145.086 132.357 145.32 132.297 145.5C132.249 145.668 132.159 145.752 132.027 145.752ZM132.032 145.752V143.844H132.95C133.226 143.844 133.448 143.766 133.616 143.61C133.796 143.454 133.928 143.256 134.012 143.016C134.096 142.764 134.138 142.518 134.138 142.278V138.3C134.138 138.024 134.222 137.76 134.39 137.508C134.558 137.244 134.864 137.112 135.308 137.112C135.752 137.112 136.058 137.244 136.226 137.508C136.394 137.76 136.478 138.024 136.478 138.3V142.278C136.478 142.938 136.322 143.532 136.01 144.06C135.71 144.588 135.296 145.002 134.768 145.302C134.24 145.602 133.634 145.752 132.95 145.752H132.032ZM137.666 145.752C136.994 145.752 136.388 145.602 135.848 145.302C135.32 145.002 134.9 144.588 134.588 144.06C134.288 143.532 134.138 142.938 134.138 142.278H136.478C136.478 142.518 136.52 142.764 136.604 143.016C136.688 143.256 136.82 143.454 137 143.61C137.18 143.766 137.402 143.844 137.666 143.844H138.584V145.752H137.666ZM138.584 145.752V143.844C138.716 143.844 138.806 143.934 138.854 144.114C138.914 144.282 138.944 144.51 138.944 144.798C138.944 145.086 138.914 145.32 138.854 145.5C138.806 145.668 138.716 145.752 138.584 145.752ZM132.032 145.752C131.912 145.752 131.822 145.668 131.762 145.5C131.702 145.32 131.672 145.086 131.672 144.798C131.672 144.51 131.702 144.282 131.762 144.114C131.822 143.934 131.912 143.844 132.032 143.844V145.752ZM136.766 135.852C136.454 135.852 136.178 135.738 135.938 135.51C135.71 135.282 135.596 135.006 135.596 134.682C135.596 134.358 135.71 134.082 135.938 133.854C136.178 133.626 136.454 133.512 136.766 133.512C137.102 133.512 137.378 133.626 137.594 133.854C137.822 134.082 137.936 134.358 137.936 134.682C137.936 135.006 137.822 135.282 137.594 135.51C137.378 135.738 137.102 135.852 136.766 135.852ZM133.85 135.852C133.538 135.852 133.262 135.738 133.022 135.51C132.794 135.282 132.68 135.006 132.68 134.682C132.68 134.358 132.794 134.082 133.022 133.854C133.262 133.626 133.538 133.512 133.85 133.512C134.174 133.512 134.45 133.626 134.678 133.854C134.906 134.082 135.02 134.358 135.02 134.682C135.02 135.006 134.906 135.282 134.678 135.51C134.45 135.738 134.174 135.852 133.85 135.852ZM148.975 145.752C148.303 145.752 147.697 145.602 147.157 145.302C146.629 145.002 146.209 144.588 145.897 144.06C145.597 143.532 145.447 142.938 145.447 142.278V141.99H147.787V142.278C147.787 142.518 147.829 142.764 147.913 143.016C147.997 143.256 148.129 143.454 148.309 143.61C148.489 143.766 148.711 143.844 148.975 143.844H149.893V145.752H148.975ZM138.589 145.752V143.844H144.259C144.643 143.844 144.937 143.706 145.141 143.43C145.345 143.154 145.447 142.68 145.447 142.008C145.447 141.012 145.207 140.268 144.727 139.776C144.247 139.272 143.521 139.02 142.549 139.02C142.405 139.02 142.219 139.02 141.991 139.02C141.763 139.02 141.535 139.026 141.307 139.038C141.079 139.038 140.887 139.038 140.731 139.038C140.335 139.038 140.011 138.948 139.759 138.768C139.507 138.576 139.315 138.33 139.183 138.03C139.063 137.73 139.003 137.424 139.003 137.112C139.003 136.86 139.051 136.686 139.147 136.59C139.255 136.482 139.357 136.434 139.453 136.446C139.513 136.638 139.663 136.806 139.903 136.95C140.143 137.082 140.503 137.148 140.983 137.148C141.103 137.148 141.271 137.148 141.487 137.148C141.703 137.136 141.913 137.13 142.117 137.13C142.333 137.118 142.477 137.112 142.549 137.112C143.485 137.112 144.283 137.25 144.943 137.526C145.603 137.79 146.143 138.156 146.563 138.624C146.983 139.092 147.289 139.62 147.481 140.208C147.685 140.784 147.787 141.384 147.787 142.008C147.787 142.908 147.613 143.634 147.265 144.186C146.917 144.738 146.473 145.14 145.933 145.392C145.393 145.632 144.835 145.752 144.259 145.752H138.589ZM138.589 145.752C138.469 145.752 138.379 145.668 138.319 145.5C138.259 145.32 138.229 145.086 138.229 144.798C138.229 144.51 138.259 144.282 138.319 144.114C138.379 143.934 138.469 143.844 138.589 143.844V145.752ZM149.893 145.752V143.844C150.025 143.844 150.115 143.934 150.163 144.114C150.223 144.282 150.253 144.51 150.253 144.798C150.253 145.086 150.223 145.32 150.163 145.5C150.115 145.668 150.025 145.752 149.893 145.752ZM149.892 145.752V143.844H154.428C154.98 143.844 155.394 143.634 155.67 143.214C155.958 142.782 156.102 142.182 156.102 141.414C156.102 140.562 155.946 139.95 155.634 139.578C155.322 139.206 154.854 139.02 154.23 139.02C154.05 139.02 153.882 139.032 153.726 139.056C153.57 139.068 153.45 139.086 153.366 139.11V145.752H151.026V139.11C151.026 138.534 151.32 138.06 151.908 137.688C152.508 137.304 153.282 137.112 154.23 137.112C155.514 137.112 156.534 137.49 157.29 138.246C158.058 139.002 158.442 140.058 158.442 141.414C158.442 142.326 158.274 143.106 157.938 143.754C157.602 144.402 157.146 144.9 156.57 145.248C156.006 145.584 155.37 145.752 154.662 145.752H149.892ZM149.892 145.752C149.772 145.752 149.682 145.668 149.622 145.5C149.562 145.32 149.532 145.086 149.532 144.798C149.532 144.51 149.562 144.282 149.622 144.114C149.682 143.934 149.772 143.844 149.892 143.844V145.752ZM176.786 145.752C176.114 145.752 175.508 145.602 174.968 145.302C174.44 145.002 174.02 144.588 173.708 144.06C173.408 143.532 173.258 142.938 173.258 142.278H175.598C175.598 142.518 175.64 142.764 175.724 143.016C175.808 143.256 175.94 143.454 176.12 143.61C176.3 143.766 176.522 143.844 176.786 143.844H177.704V145.752H176.786ZM170.72 150C169.592 150 168.614 149.808 167.786 149.424C166.958 149.052 166.316 148.506 165.86 147.786C165.416 147.078 165.194 146.22 165.194 145.212C165.194 144.78 165.236 144.348 165.32 143.916C165.416 143.484 165.554 143.088 165.734 142.728C165.914 142.368 166.136 142.08 166.4 141.864C166.676 141.648 167 141.54 167.372 141.54C167.684 141.54 167.942 141.606 168.146 141.738C168.35 141.87 168.5 142.02 168.596 142.188C168.704 142.356 168.758 142.506 168.758 142.638C168.518 142.818 168.302 143.016 168.11 143.232C167.93 143.436 167.786 143.712 167.678 144.06C167.582 144.396 167.534 144.852 167.534 145.428C167.534 146.292 167.804 146.952 168.344 147.408C168.896 147.864 169.7 148.092 170.756 148.092C171.668 148.092 172.31 147.888 172.682 147.48C173.066 147.084 173.258 146.376 173.258 145.356V138.336C173.258 138.036 173.342 137.76 173.51 137.508C173.678 137.244 173.984 137.112 174.428 137.112C174.872 137.112 175.178 137.244 175.346 137.508C175.514 137.76 175.598 138.036 175.598 138.336V145.356C175.598 146.772 175.214 147.9 174.446 148.74C173.678 149.58 172.436 150 170.72 150ZM177.704 145.752V143.844C177.836 143.844 177.926 143.934 177.974 144.114C178.034 144.282 178.064 144.51 178.064 144.798C178.064 145.086 178.034 145.32 177.974 145.5C177.926 145.668 177.836 145.752 177.704 145.752ZM170.414 137.112C170.042 137.112 169.724 136.986 169.46 136.734C169.208 136.47 169.082 136.164 169.082 135.816C169.082 135.456 169.208 135.15 169.46 134.898C169.724 134.646 170.042 134.52 170.414 134.52C170.762 134.52 171.062 134.646 171.314 134.898C171.578 135.15 171.71 135.456 171.71 135.816C171.71 136.164 171.578 136.47 171.314 136.734C171.062 136.986 170.762 137.112 170.414 137.112ZM177.7 145.752V143.844H178.618C178.894 143.844 179.116 143.766 179.284 143.61C179.464 143.454 179.596 143.256 179.68 143.016C179.764 142.764 179.806 142.518 179.806 142.278V138.3C179.806 138.024 179.89 137.76 180.058 137.508C180.226 137.244 180.532 137.112 180.976 137.112C181.42 137.112 181.726 137.244 181.894 137.508C182.062 137.76 182.146 138.024 182.146 138.3V142.278C182.146 142.938 181.99 143.532 181.678 144.06C181.378 144.588 180.964 145.002 180.436 145.302C179.908 145.602 179.302 145.752 178.618 145.752H177.7ZM183.334 145.752C182.662 145.752 182.056 145.602 181.516 145.302C180.988 145.002 180.568 144.588 180.256 144.06C179.956 143.532 179.806 142.938 179.806 142.278H182.146C182.146 142.518 182.188 142.764 182.272 143.016C182.356 143.256 182.488 143.454 182.668 143.61C182.848 143.766 183.07 143.844 183.334 143.844H184.252V145.752H183.334ZM184.252 145.752V143.844C184.384 143.844 184.474 143.934 184.522 144.114C184.582 144.282 184.612 144.51 184.612 144.798C184.612 145.086 184.582 145.32 184.522 145.5C184.474 145.668 184.384 145.752 184.252 145.752ZM177.7 145.752C177.58 145.752 177.49 145.668 177.43 145.5C177.37 145.32 177.34 145.086 177.34 144.798C177.34 144.51 177.37 144.282 177.43 144.114C177.49 143.934 177.58 143.844 177.7 143.844V145.752ZM182.434 149.622C182.122 149.622 181.846 149.508 181.606 149.28C181.378 149.052 181.264 148.776 181.264 148.452C181.264 148.128 181.378 147.852 181.606 147.624C181.846 147.396 182.122 147.282 182.434 147.282C182.77 147.282 183.046 147.396 183.262 147.624C183.49 147.852 183.604 148.128 183.604 148.452C183.604 148.776 183.49 149.052 183.262 149.28C183.046 149.508 182.77 149.622 182.434 149.622ZM179.518 149.622C179.206 149.622 178.93 149.508 178.69 149.28C178.462 149.052 178.348 148.776 178.348 148.452C178.348 148.128 178.462 147.852 178.69 147.624C178.93 147.396 179.206 147.282 179.518 147.282C179.842 147.282 180.118 147.396 180.346 147.624C180.574 147.852 180.688 148.128 180.688 148.452C180.688 148.776 180.574 149.052 180.346 149.28C180.118 149.508 179.842 149.622 179.518 149.622ZM184.257 145.752V143.844H185.913C186.045 143.844 186.171 143.808 186.291 143.736C186.411 143.664 186.525 143.562 186.633 143.43C186.741 143.286 186.831 143.106 186.903 142.89C186.987 142.662 187.047 142.398 187.083 142.098C187.131 141.786 187.155 141.438 187.155 141.054C187.155 140.466 187.101 139.998 186.993 139.65C186.897 139.302 186.759 139.02 186.579 138.804C186.399 138.588 186.183 138.39 185.931 138.21C185.931 138.078 185.979 137.928 186.075 137.76C186.183 137.592 186.339 137.442 186.543 137.31C186.759 137.178 187.017 137.112 187.317 137.112C187.689 137.112 188.013 137.22 188.289 137.436C188.565 137.652 188.787 137.946 188.955 138.318C189.135 138.678 189.267 139.098 189.351 139.578C189.447 140.046 189.495 140.544 189.495 141.072C189.495 142.524 189.183 143.67 188.559 144.51C187.935 145.338 187.053 145.752 185.913 145.752H184.257ZM184.257 145.752C184.137 145.752 184.047 145.668 183.987 145.5C183.927 145.32 183.897 145.086 183.897 144.798C183.897 144.51 183.927 144.282 183.987 144.114C184.047 143.934 184.137 143.844 184.257 143.844V145.752ZM187.335 149.784C186.963 149.784 186.645 149.652 186.381 149.388C186.129 149.136 186.003 148.836 186.003 148.488C186.003 148.128 186.129 147.822 186.381 147.57C186.645 147.318 186.963 147.192 187.335 147.192C187.683 147.192 187.983 147.318 188.235 147.57C188.499 147.822 188.631 148.128 188.631 148.488C188.631 148.836 188.499 149.136 188.235 149.388C187.983 149.652 187.683 149.784 187.335 149.784ZM192.401 149.874C192.101 149.874 191.849 149.808 191.645 149.676C191.441 149.544 191.285 149.388 191.177 149.208C191.081 149.04 191.033 148.896 191.033 148.776C191.285 148.584 191.501 148.368 191.681 148.128C191.861 147.888 191.999 147.576 192.095 147.192C192.203 146.82 192.257 146.34 192.257 145.752V138.228C192.257 137.88 192.365 137.61 192.581 137.418C192.809 137.214 193.091 137.112 193.427 137.112C193.775 137.112 194.057 137.214 194.273 137.418C194.489 137.61 194.597 137.88 194.597 138.228V145.752C194.597 146.28 194.549 146.79 194.453 147.282C194.369 147.774 194.237 148.212 194.057 148.596C193.889 148.992 193.667 149.304 193.391 149.532C193.115 149.76 192.785 149.874 192.401 149.874ZM205.095 145.752C204.423 145.752 203.817 145.602 203.277 145.302C202.749 145.002 202.329 144.588 202.017 144.06C201.717 143.532 201.567 142.938 201.567 142.278V141.486H203.907V142.278C203.907 142.518 203.949 142.764 204.033 143.016C204.117 143.256 204.249 143.454 204.429 143.61C204.609 143.766 204.831 143.844 205.095 143.844H206.013V145.752H205.095ZM197.949 145.752C197.709 145.752 197.481 145.686 197.265 145.554C197.049 145.41 196.941 145.158 196.941 144.798C196.941 144.438 197.049 144.192 197.265 144.06C197.481 143.916 197.709 143.844 197.949 143.844H199.677C200.289 143.844 200.757 143.634 201.081 143.214C201.405 142.782 201.567 142.188 201.567 141.432C201.567 140.868 201.489 140.406 201.333 140.046C201.189 139.686 201.009 139.404 200.793 139.2C200.589 138.996 200.397 138.852 200.217 138.768L200.541 138.84C200.421 138.792 200.265 138.804 200.073 138.876C199.893 138.948 199.725 139.092 199.569 139.308C199.425 139.524 199.353 139.83 199.353 140.226C199.221 140.274 199.041 140.328 198.813 140.388C198.597 140.448 198.399 140.478 198.219 140.478C197.907 140.478 197.613 140.37 197.337 140.154C197.073 139.938 196.941 139.602 196.941 139.146C196.941 138.726 197.061 138.384 197.301 138.12C197.541 137.844 197.829 137.634 198.165 137.49C198.513 137.346 198.849 137.25 199.173 137.202C199.497 137.142 199.743 137.112 199.911 137.112C200.235 137.112 200.619 137.19 201.063 137.346C201.507 137.502 201.945 137.754 202.377 138.102C202.821 138.438 203.187 138.888 203.475 139.452C203.763 140.004 203.907 140.688 203.907 141.504C203.907 142.44 203.703 143.226 203.295 143.862C202.899 144.486 202.377 144.96 201.729 145.284C201.093 145.596 200.409 145.752 199.677 145.752H197.949ZM206.013 145.752V143.844C206.145 143.844 206.235 143.934 206.283 144.114C206.343 144.282 206.373 144.51 206.373 144.798C206.373 145.086 206.343 145.32 206.283 145.5C206.235 145.668 206.145 145.752 206.013 145.752ZM206.019 145.752V143.844H210.555C211.107 143.844 211.521 143.634 211.797 143.214C212.085 142.782 212.229 142.182 212.229 141.414C212.229 140.562 212.073 139.95 211.761 139.578C211.449 139.206 210.981 139.02 210.357 139.02C210.177 139.02 210.009 139.032 209.853 139.056C209.697 139.068 209.577 139.086 209.493 139.11V145.752H207.153V139.11C207.153 138.534 207.447 138.06 208.035 137.688C208.635 137.304 209.409 137.112 210.357 137.112C211.641 137.112 212.661 137.49 213.417 138.246C214.185 139.002 214.569 140.058 214.569 141.414C214.569 142.326 214.401 143.106 214.065 143.754C213.729 144.402 213.273 144.9 212.697 145.248C212.133 145.584 211.497 145.752 210.789 145.752H206.019ZM206.019 145.752C205.899 145.752 205.809 145.668 205.749 145.5C205.689 145.32 205.659 145.086 205.659 144.798C205.659 144.51 205.689 144.282 205.749 144.114C205.809 143.934 205.899 143.844 206.019 143.844V145.752Z" fill="#2F2F2F"/>
<path d="M86.3814 171.752C85.8867 171.752 85.4434 171.64 85.0514 171.416C84.6687 171.182 84.3654 170.865 84.1414 170.464C83.9174 170.062 83.8054 169.61 83.8054 169.106H85.2194C85.2194 169.348 85.2614 169.586 85.3454 169.82C85.4294 170.053 85.5554 170.249 85.7234 170.408C85.9007 170.566 86.1201 170.646 86.3814 170.646H86.9414V171.752H86.3814ZM81.5794 175.056C80.7021 175.056 79.9507 174.906 79.3254 174.608C78.7094 174.309 78.2381 173.894 77.9114 173.362C77.5941 172.839 77.4354 172.242 77.4354 171.57C77.4354 171.308 77.4634 171.005 77.5194 170.66C77.5754 170.314 77.6687 169.978 77.7994 169.652C77.9301 169.316 78.1027 169.04 78.3174 168.826C78.5321 168.602 78.8074 168.49 79.1434 168.49C79.2927 168.49 79.4234 168.513 79.5354 168.56C79.6474 168.606 79.7361 168.662 79.8014 168.728C79.8761 168.793 79.9321 168.854 79.9694 168.91C79.6707 169.162 79.4374 169.437 79.2694 169.736C79.1107 170.025 78.9987 170.324 78.9334 170.632C78.8681 170.94 78.8354 171.243 78.8354 171.542C78.8354 172.372 79.0827 172.979 79.5774 173.362C80.0721 173.754 80.7394 173.95 81.5794 173.95C82.3727 173.95 82.9421 173.768 83.2874 173.404C83.6327 173.04 83.8054 172.433 83.8054 171.584V165.732C83.8054 165.498 83.8661 165.326 83.9874 165.214C84.1181 165.092 84.2954 165.032 84.5194 165.032C84.7341 165.032 84.9021 165.092 85.0234 165.214C85.1541 165.326 85.2194 165.498 85.2194 165.732V171.584C85.2194 172.638 84.9301 173.478 84.3514 174.104C83.7727 174.738 82.8487 175.056 81.5794 175.056ZM86.9414 171.752V170.646C87.0441 170.646 87.1141 170.692 87.1514 170.786C87.1981 170.879 87.2214 171.014 87.2214 171.192C87.2214 171.36 87.1981 171.495 87.1514 171.598C87.1141 171.7 87.0441 171.752 86.9414 171.752ZM81.3414 165.032C81.0894 165.032 80.8794 164.948 80.7114 164.78C80.5434 164.612 80.4594 164.411 80.4594 164.178C80.4594 163.944 80.5434 163.744 80.7114 163.576C80.8794 163.398 81.0894 163.31 81.3414 163.31C81.5654 163.31 81.7614 163.398 81.9294 163.576C82.1067 163.744 82.1954 163.944 82.1954 164.178C82.1954 164.411 82.1067 164.612 81.9294 164.78C81.7614 164.948 81.5654 165.032 81.3414 165.032ZM86.9434 171.752V170.646H87.3914C87.662 170.646 87.8814 170.566 88.0494 170.408C88.2174 170.249 88.3434 170.053 88.4274 169.82C88.5114 169.586 88.5534 169.348 88.5534 169.106V165.732C88.5534 165.498 88.614 165.326 88.7354 165.214C88.8567 165.092 89.0294 165.032 89.2534 165.032C89.4774 165.032 89.65 165.092 89.7714 165.214C89.8927 165.326 89.9534 165.498 89.9534 165.732V169.106C89.9534 169.61 89.8414 170.062 89.6174 170.464C89.4027 170.865 89.104 171.182 88.7214 171.416C88.3387 171.64 87.8954 171.752 87.3914 171.752H86.9434ZM91.1154 171.752C90.6207 171.752 90.1774 171.64 89.7854 171.416C89.4027 171.182 89.0994 170.865 88.8754 170.464C88.6607 170.062 88.5534 169.61 88.5534 169.106H89.9534C89.9534 169.348 89.9954 169.586 90.0794 169.82C90.1634 170.053 90.2894 170.249 90.4574 170.408C90.6347 170.566 90.854 170.646 91.1154 170.646H91.6754V171.752H91.1154ZM91.6754 171.752V170.646C91.7874 170.646 91.862 170.692 91.8994 170.786C91.9367 170.879 91.9554 171.014 91.9554 171.192C91.9554 171.36 91.9367 171.495 91.8994 171.598C91.862 171.7 91.7874 171.752 91.6754 171.752ZM86.9434 171.752C86.8407 171.752 86.7707 171.7 86.7334 171.598C86.6867 171.495 86.6634 171.36 86.6634 171.192C86.6634 171.014 86.6867 170.879 86.7334 170.786C86.7707 170.692 86.8407 170.646 86.9434 170.646V171.752ZM90.3034 174.552C90.0794 174.552 89.8834 174.468 89.7154 174.3C89.5567 174.141 89.4774 173.95 89.4774 173.726C89.4774 173.492 89.5567 173.292 89.7154 173.124C89.8834 172.965 90.0794 172.886 90.3034 172.886C90.5367 172.886 90.7327 172.965 90.8914 173.124C91.05 173.292 91.1294 173.492 91.1294 173.726C91.1294 173.95 91.05 174.141 90.8914 174.3C90.7327 174.468 90.5367 174.552 90.3034 174.552ZM88.2034 174.552C87.9794 174.552 87.7834 174.468 87.6154 174.3C87.4567 174.141 87.3774 173.95 87.3774 173.726C87.3774 173.492 87.4567 173.292 87.6154 173.124C87.7834 172.965 87.9794 172.886 88.2034 172.886C88.4367 172.886 88.6327 172.965 88.7914 173.124C88.95 173.292 89.0294 173.492 89.0294 173.726C89.0294 173.95 88.95 174.141 88.7914 174.3C88.6327 174.468 88.4367 174.552 88.2034 174.552ZM91.6738 171.752V170.646H92.7098C92.9525 170.646 93.1578 170.585 93.3258 170.464C93.4938 170.342 93.6292 170.188 93.7318 170.002C93.8345 169.815 93.9138 169.614 93.9698 169.4C94.0258 169.185 94.0585 168.975 94.0678 168.77C94.0865 168.564 94.0958 168.392 94.0958 168.252C94.0958 167.944 94.0678 167.631 94.0118 167.314C93.9558 166.987 93.8485 166.665 93.6898 166.348C93.5312 166.021 93.2885 165.727 92.9618 165.466C92.9992 165.4 93.0505 165.335 93.1158 165.27C93.1905 165.204 93.2838 165.148 93.3958 165.102C93.5078 165.055 93.6432 165.032 93.8018 165.032C94.1098 165.032 94.3712 165.134 94.5858 165.34C94.8098 165.536 94.9872 165.797 95.1178 166.124C95.2485 166.45 95.3418 166.805 95.3978 167.188C95.4632 167.561 95.4958 167.925 95.4958 168.28C95.4958 169.362 95.2485 170.212 94.7538 170.828C94.2685 171.444 93.5872 171.752 92.7098 171.752H91.6738ZM91.6738 171.752C91.5712 171.752 91.5012 171.7 91.4638 171.598C91.4172 171.495 91.3938 171.36 91.3938 171.192C91.3938 171.014 91.4172 170.879 91.4638 170.786C91.5012 170.692 91.5712 170.646 91.6738 170.646V171.752ZM93.8298 174.594C93.5778 174.594 93.3678 174.505 93.1998 174.328C93.0318 174.16 92.9478 173.964 92.9478 173.74C92.9478 173.497 93.0318 173.292 93.1998 173.124C93.3678 172.956 93.5778 172.872 93.8298 172.872C94.0538 172.872 94.2498 172.956 94.4178 173.124C94.5952 173.292 94.6838 173.497 94.6838 173.74C94.6838 173.964 94.5952 174.16 94.4178 174.328C94.2498 174.505 94.0538 174.594 93.8298 174.594ZM97.5103 174.958C97.361 174.958 97.2303 174.934 97.1183 174.888C97.0063 174.841 96.913 174.78 96.8383 174.706C96.773 174.64 96.7216 174.58 96.6843 174.524C97.011 174.253 97.2536 173.959 97.4123 173.642C97.571 173.334 97.6783 173.016 97.7343 172.69C97.7903 172.363 97.8183 172.05 97.8183 171.752V165.718C97.8183 165.475 97.8836 165.302 98.0143 165.2C98.145 165.088 98.313 165.032 98.5183 165.032C98.7143 165.032 98.8776 165.088 99.0083 165.2C99.1483 165.302 99.2183 165.475 99.2183 165.718V171.752C99.2183 172.097 99.1856 172.456 99.1203 172.83C99.0643 173.212 98.971 173.562 98.8403 173.88C98.7096 174.206 98.5323 174.468 98.3083 174.664C98.0936 174.86 97.8276 174.958 97.5103 174.958ZM107.226 171.752C106.731 171.752 106.288 171.64 105.896 171.416C105.513 171.182 105.21 170.865 104.986 170.464C104.762 170.062 104.65 169.61 104.65 169.106V168.42H106.064V169.106C106.064 169.348 106.101 169.586 106.176 169.82C106.26 170.053 106.391 170.249 106.568 170.408C106.745 170.566 106.965 170.646 107.226 170.646H107.786V171.752H107.226ZM101.234 171.752C101.047 171.752 100.907 171.7 100.814 171.598C100.721 171.495 100.674 171.36 100.674 171.192C100.674 171.024 100.721 170.893 100.814 170.8C100.907 170.697 101.047 170.646 101.234 170.646H102.97C103.521 170.646 103.936 170.44 104.216 170.03C104.505 169.619 104.65 169.059 104.65 168.35C104.65 167.818 104.575 167.384 104.426 167.048C104.286 166.702 104.076 166.455 103.796 166.306C103.525 166.147 103.208 166.086 102.844 166.124L103.502 166.026C103.269 166.054 103.045 166.119 102.83 166.222C102.625 166.315 102.457 166.46 102.326 166.656C102.195 166.852 102.13 167.118 102.13 167.454C102.055 167.472 101.948 167.482 101.808 167.482C101.668 167.482 101.542 167.463 101.43 167.426C101.281 167.388 101.141 167.304 101.01 167.174C100.889 167.034 100.828 166.842 100.828 166.6C100.828 166.348 100.889 166.124 101.01 165.928C101.141 165.732 101.313 165.568 101.528 165.438C101.752 165.307 101.995 165.209 102.256 165.144C102.527 165.069 102.802 165.032 103.082 165.032C103.474 165.032 103.847 165.102 104.202 165.242C104.557 165.382 104.874 165.596 105.154 165.886C105.443 166.166 105.667 166.516 105.826 166.936C105.985 167.346 106.064 167.832 106.064 168.392C106.064 169.157 105.919 169.787 105.63 170.282C105.341 170.776 104.963 171.145 104.496 171.388C104.029 171.63 103.521 171.752 102.97 171.752H101.234ZM107.786 171.752V170.646C107.889 170.646 107.959 170.692 107.996 170.786C108.043 170.879 108.066 171.014 108.066 171.192C108.066 171.36 108.043 171.495 107.996 171.598C107.959 171.7 107.889 171.752 107.786 171.752ZM115.297 171.752C114.803 171.752 114.359 171.64 113.967 171.416C113.575 171.182 113.267 170.865 113.043 170.464C112.829 170.062 112.721 169.61 112.721 169.106V168.42H114.135V169.106C114.135 169.348 114.173 169.586 114.247 169.82C114.331 170.053 114.457 170.249 114.625 170.408C114.803 170.566 115.027 170.646 115.297 170.646H115.843V171.752H115.297ZM107.779 171.752V170.646H110.901C111.489 170.646 111.937 170.45 112.245 170.058C112.563 169.666 112.721 169.106 112.721 168.378C112.721 167.622 112.567 167.062 112.259 166.698C111.961 166.324 111.517 166.138 110.929 166.138C110.603 166.138 110.355 166.18 110.187 166.264C110.019 166.338 109.926 166.446 109.907 166.586V171.752H108.507V166.586C108.507 166.128 108.731 165.755 109.179 165.466C109.637 165.176 110.22 165.032 110.929 165.032C111.909 165.032 112.689 165.326 113.267 165.914C113.846 166.502 114.135 167.323 114.135 168.378C114.135 169.087 114.009 169.694 113.757 170.198C113.515 170.702 113.174 171.089 112.735 171.36C112.306 171.621 111.816 171.752 111.265 171.752H107.779ZM107.779 171.752C107.677 171.752 107.607 171.7 107.569 171.598C107.523 171.495 107.499 171.36 107.499 171.192C107.499 171.014 107.523 170.879 107.569 170.786C107.607 170.692 107.677 170.646 107.779 170.646V171.752ZM115.843 171.752V170.646C115.955 170.646 116.03 170.692 116.067 170.786C116.105 170.879 116.123 171.014 116.123 171.192C116.123 171.36 116.105 171.495 116.067 171.598C116.03 171.7 115.955 171.752 115.843 171.752ZM115.846 171.752V170.646H116.294C116.564 170.646 116.784 170.566 116.952 170.408C117.12 170.249 117.246 170.053 117.33 169.82C117.414 169.586 117.456 169.348 117.456 169.106V164.584C117.456 164.276 117.414 164.019 117.33 163.814C117.255 163.599 117.157 163.426 117.036 163.296C116.924 163.165 116.816 163.072 116.714 163.016C116.742 162.96 116.798 162.894 116.882 162.82C116.966 162.736 117.073 162.666 117.204 162.61C117.344 162.544 117.502 162.512 117.68 162.512C117.885 162.512 118.076 162.563 118.254 162.666C118.431 162.768 118.576 162.936 118.688 163.17C118.8 163.403 118.856 163.711 118.856 164.094V169.106C118.856 169.61 118.744 170.062 118.52 170.464C118.305 170.865 118.006 171.182 117.624 171.416C117.241 171.64 116.798 171.752 116.294 171.752H115.846ZM115.846 171.752C115.743 171.752 115.673 171.7 115.636 171.598C115.589 171.495 115.566 171.36 115.566 171.192C115.566 171.014 115.589 170.879 115.636 170.786C115.673 170.692 115.743 170.646 115.846 170.646V171.752ZM121.87 171.752C121.562 171.752 121.371 171.663 121.296 171.486C121.222 171.299 121.184 171.084 121.184 170.842V164.584C121.184 164.276 121.142 164.019 121.058 163.814C120.974 163.599 120.872 163.426 120.75 163.296C120.638 163.165 120.536 163.072 120.442 163.016C120.47 162.96 120.526 162.894 120.61 162.82C120.694 162.736 120.806 162.666 120.946 162.61C121.086 162.544 121.245 162.512 121.422 162.512C121.618 162.512 121.805 162.563 121.982 162.666C122.16 162.768 122.304 162.936 122.416 163.17C122.528 163.403 122.584 163.711 122.584 164.094V170.842C122.584 171.084 122.542 171.299 122.458 171.486C122.374 171.663 122.178 171.752 121.87 171.752ZM136.639 171.752C136.145 171.752 135.701 171.64 135.309 171.416C134.927 171.182 134.623 170.865 134.399 170.464C134.175 170.062 134.063 169.61 134.063 169.106H135.477C135.477 169.348 135.519 169.586 135.603 169.82C135.687 170.053 135.813 170.249 135.981 170.408C136.159 170.566 136.378 170.646 136.639 170.646H137.199V171.752H136.639ZM131.837 175.056C130.96 175.056 130.209 174.906 129.583 174.608C128.967 174.309 128.496 173.894 128.169 173.362C127.852 172.839 127.693 172.242 127.693 171.57C127.693 171.308 127.721 171.005 127.777 170.66C127.833 170.314 127.927 169.978 128.057 169.652C128.188 169.316 128.361 169.04 128.575 168.826C128.79 168.602 129.065 168.49 129.401 168.49C129.551 168.49 129.681 168.513 129.793 168.56C129.905 168.606 129.994 168.662 130.059 168.728C130.134 168.793 130.19 168.854 130.227 168.91C129.929 169.162 129.695 169.437 129.527 169.736C129.369 170.025 129.257 170.324 129.191 170.632C129.126 170.94 129.093 171.243 129.093 171.542C129.093 172.372 129.341 172.979 129.835 173.362C130.33 173.754 130.997 173.95 131.837 173.95C132.631 173.95 133.2 173.768 133.545 173.404C133.891 173.04 134.063 172.433 134.063 171.584V164.584C134.063 164.276 134.021 164.019 133.937 163.814C133.863 163.599 133.765 163.426 133.643 163.296C133.531 163.165 133.429 163.072 133.335 163.016C133.363 162.96 133.419 162.894 133.503 162.82C133.587 162.736 133.695 162.666 133.825 162.61C133.965 162.544 134.119 162.512 134.287 162.512C134.493 162.512 134.684 162.563 134.861 162.666C135.048 162.768 135.197 162.936 135.309 163.17C135.421 163.403 135.477 163.711 135.477 164.094V171.584C135.477 172.638 135.188 173.478 134.609 174.104C134.031 174.738 133.107 175.056 131.837 175.056ZM137.199 171.752V170.646C137.302 170.646 137.372 170.692 137.409 170.786C137.456 170.879 137.479 171.014 137.479 171.192C137.479 171.36 137.456 171.495 137.409 171.598C137.372 171.7 137.302 171.752 137.199 171.752ZM148.275 171.752C147.781 171.752 147.337 171.64 146.945 171.416C146.563 171.182 146.259 170.865 146.035 170.464C145.821 170.062 145.713 169.61 145.713 169.106L147.113 168.756V169.106C147.113 169.348 147.155 169.586 147.239 169.82C147.323 170.053 147.449 170.249 147.617 170.408C147.795 170.566 148.014 170.646 148.275 170.646H148.835V171.752H148.275ZM137.201 171.752V170.646H144.523C144.887 170.646 145.177 170.501 145.391 170.212C145.606 169.913 145.713 169.432 145.713 168.77C145.713 167.836 145.499 167.164 145.069 166.754C144.649 166.343 144.071 166.138 143.333 166.138C142.755 166.138 142.265 166.245 141.863 166.46C141.471 166.674 141.145 166.95 140.883 167.286C140.622 167.612 140.412 167.967 140.253 168.35C140.095 168.732 139.964 169.101 139.861 169.456L139.203 169.246C139.297 168.882 139.404 168.504 139.525 168.112C139.647 167.71 139.796 167.332 139.973 166.978C140.16 166.614 140.393 166.287 140.673 165.998C140.963 165.699 141.322 165.466 141.751 165.298C142.181 165.12 142.703 165.032 143.319 165.032C144.514 165.032 145.443 165.358 146.105 166.012C146.777 166.665 147.113 167.58 147.113 168.756C147.113 169.698 146.885 170.436 146.427 170.968C145.979 171.49 145.345 171.752 144.523 171.752H137.201ZM138.447 171.752V167.37C138.447 167.099 138.373 166.856 138.223 166.642C138.074 166.418 137.925 166.259 137.775 166.166C137.841 166.072 137.953 165.979 138.111 165.886C138.279 165.792 138.475 165.746 138.699 165.746C138.858 165.746 139.007 165.778 139.147 165.844C139.287 165.9 139.409 165.988 139.511 166.11C139.623 166.231 139.707 166.39 139.763 166.586C139.829 166.772 139.861 166.996 139.861 167.258V171.752H138.447ZM137.201 171.752C137.099 171.752 137.029 171.7 136.991 171.598C136.945 171.495 136.921 171.36 136.921 171.192C136.921 171.014 136.945 170.879 136.991 170.786C137.029 170.692 137.099 170.646 137.201 170.646V171.752ZM148.835 171.752V170.646C148.947 170.646 149.022 170.692 149.059 170.786C149.097 170.879 149.115 171.014 149.115 171.192C149.115 171.36 149.097 171.495 149.059 171.598C149.022 171.7 148.947 171.752 148.835 171.752ZM142.773 164.108C142.521 164.108 142.311 164.024 142.143 163.856C141.975 163.688 141.891 163.487 141.891 163.254C141.891 163.02 141.975 162.82 142.143 162.652C142.311 162.474 142.521 162.386 142.773 162.386C142.997 162.386 143.193 162.474 143.361 162.652C143.539 162.82 143.627 163.02 143.627 163.254C143.627 163.487 143.539 163.688 143.361 163.856C143.193 164.024 142.997 164.108 142.773 164.108ZM148.836 171.752V170.646H152.756C153.167 170.646 153.489 170.51 153.722 170.24C153.965 169.96 154.086 169.586 154.086 169.12V166.586C154.067 166.446 153.974 166.338 153.806 166.264C153.638 166.18 153.386 166.138 153.05 166.138C152.471 166.138 152.028 166.324 151.72 166.698C151.421 167.062 151.272 167.622 151.272 168.378C151.272 169.106 151.426 169.661 151.734 170.044C152.051 170.426 152.504 170.627 153.092 170.646L152.728 171.738C152.205 171.682 151.725 171.528 151.286 171.276C150.857 171.014 150.511 170.646 150.25 170.17C149.989 169.684 149.858 169.087 149.858 168.378C149.858 167.323 150.147 166.502 150.726 165.914C151.305 165.326 152.079 165.032 153.05 165.032C153.769 165.032 154.352 165.181 154.8 165.48C155.257 165.769 155.486 166.138 155.486 166.586V169.12C155.486 169.624 155.369 170.076 155.136 170.478C154.903 170.87 154.581 171.182 154.17 171.416C153.769 171.64 153.297 171.752 152.756 171.752H148.836ZM148.836 171.752C148.733 171.752 148.663 171.7 148.626 171.598C148.579 171.495 148.556 171.36 148.556 171.192C148.556 171.014 148.579 170.879 148.626 170.786C148.663 170.692 148.733 170.646 148.836 170.646V171.752ZM153.106 164.122C152.854 164.122 152.644 164.038 152.476 163.87C152.308 163.702 152.224 163.501 152.224 163.268C152.224 163.034 152.308 162.834 152.476 162.666C152.644 162.488 152.854 162.4 153.106 162.4C153.33 162.4 153.526 162.488 153.694 162.666C153.871 162.834 153.96 163.034 153.96 163.268C153.96 163.501 153.871 163.702 153.694 163.87C153.526 164.038 153.33 164.122 153.106 164.122ZM158.524 171.752C158.216 171.752 158.025 171.663 157.95 171.486C157.876 171.299 157.838 171.084 157.838 170.842V164.584C157.838 164.276 157.796 164.019 157.712 163.814C157.628 163.599 157.526 163.426 157.404 163.296C157.292 163.165 157.19 163.072 157.096 163.016C157.124 162.96 157.18 162.894 157.264 162.82C157.348 162.736 157.46 162.666 157.6 162.61C157.74 162.544 157.899 162.512 158.076 162.512C158.272 162.512 158.459 162.563 158.636 162.666C158.814 162.768 158.958 162.936 159.07 163.17C159.182 163.403 159.238 163.711 159.238 164.094V170.842C159.238 171.084 159.196 171.299 159.112 171.486C159.028 171.663 158.832 171.752 158.524 171.752ZM170.746 171.752C170.251 171.752 169.808 171.64 169.416 171.416C169.033 171.182 168.73 170.865 168.506 170.464C168.282 170.062 168.17 169.61 168.17 169.106V168.42H169.584V169.106C169.584 169.348 169.621 169.586 169.696 169.82C169.78 170.053 169.91 170.249 170.088 170.408C170.265 170.566 170.484 170.646 170.746 170.646H171.306V171.752H170.746ZM164.754 171.752C164.567 171.752 164.427 171.7 164.334 171.598C164.24 171.495 164.194 171.36 164.194 171.192C164.194 171.024 164.24 170.893 164.334 170.8C164.427 170.697 164.567 170.646 164.754 170.646H166.49C167.04 170.646 167.456 170.44 167.736 170.03C168.025 169.619 168.17 169.059 168.17 168.35C168.17 167.818 168.095 167.384 167.946 167.048C167.806 166.702 167.596 166.455 167.316 166.306C167.045 166.147 166.728 166.086 166.364 166.124L167.022 166.026C166.788 166.054 166.564 166.119 166.35 166.222C166.144 166.315 165.976 166.46 165.846 166.656C165.715 166.852 165.65 167.118 165.65 167.454C165.575 167.472 165.468 167.482 165.328 167.482C165.188 167.482 165.062 167.463 164.95 167.426C164.8 167.388 164.66 167.304 164.53 167.174C164.408 167.034 164.348 166.842 164.348 166.6C164.348 166.348 164.408 166.124 164.53 165.928C164.66 165.732 164.833 165.568 165.048 165.438C165.272 165.307 165.514 165.209 165.776 165.144C166.046 165.069 166.322 165.032 166.602 165.032C166.994 165.032 167.367 165.102 167.722 165.242C168.076 165.382 168.394 165.596 168.674 165.886C168.963 166.166 169.187 166.516 169.346 166.936C169.504 167.346 169.584 167.832 169.584 168.392C169.584 169.157 169.439 169.787 169.15 170.282C168.86 170.776 168.482 171.145 168.016 171.388C167.549 171.63 167.04 171.752 166.49 171.752H164.754ZM171.306 171.752V170.646C171.408 170.646 171.478 170.692 171.516 170.786C171.562 170.879 171.586 171.014 171.586 171.192C171.586 171.36 171.562 171.495 171.516 171.598C171.478 171.7 171.408 171.752 171.306 171.752ZM171.299 171.752V170.646H172.335C172.577 170.646 172.783 170.585 172.951 170.464C173.119 170.342 173.254 170.188 173.357 170.002C173.459 169.815 173.539 169.614 173.595 169.4C173.651 169.185 173.683 168.975 173.693 168.77C173.711 168.564 173.721 168.392 173.721 168.252C173.721 167.944 173.693 167.631 173.637 167.314C173.581 166.987 173.473 166.665 173.315 166.348C173.156 166.021 172.913 165.727 172.587 165.466C172.624 165.4 172.675 165.335 172.741 165.27C172.815 165.204 172.909 165.148 173.021 165.102C173.133 165.055 173.268 165.032 173.427 165.032C173.735 165.032 173.996 165.134 174.211 165.34C174.435 165.536 174.612 165.797 174.743 166.124C174.873 166.45 174.967 166.805 175.023 167.188C175.088 167.561 175.121 167.925 175.121 168.28C175.121 169.362 174.873 170.212 174.379 170.828C173.893 171.444 173.212 171.752 172.335 171.752H171.299ZM171.299 171.752C171.196 171.752 171.126 171.7 171.089 171.598C171.042 171.495 171.019 171.36 171.019 171.192C171.019 171.014 171.042 170.879 171.089 170.786C171.126 170.692 171.196 170.646 171.299 170.646V171.752ZM174.491 174.552C174.267 174.552 174.071 174.468 173.903 174.3C173.744 174.141 173.665 173.95 173.665 173.726C173.665 173.492 173.744 173.292 173.903 173.124C174.071 172.965 174.267 172.886 174.491 172.886C174.724 172.886 174.92 172.965 175.079 173.124C175.237 173.292 175.317 173.492 175.317 173.726C175.317 173.95 175.237 174.141 175.079 174.3C174.92 174.468 174.724 174.552 174.491 174.552ZM172.391 174.552C172.167 174.552 171.971 174.468 171.803 174.3C171.644 174.141 171.565 173.95 171.565 173.726C171.565 173.492 171.644 173.292 171.803 173.124C171.971 172.965 172.167 172.886 172.391 172.886C172.624 172.886 172.82 172.965 172.979 173.124C173.137 173.292 173.217 173.492 173.217 173.726C173.217 173.95 173.137 174.141 172.979 174.3C172.82 174.468 172.624 174.552 172.391 174.552ZM185.409 175.056C184.383 175.056 183.496 174.897 182.749 174.58C182.012 174.262 181.443 173.8 181.041 173.194C180.649 172.596 180.453 171.864 180.453 170.996C180.453 170.678 180.481 170.356 180.537 170.03C180.603 169.694 180.696 169.386 180.817 169.106C180.939 168.826 181.093 168.602 181.279 168.434C181.475 168.256 181.704 168.168 181.965 168.168C182.115 168.168 182.241 168.191 182.343 168.238C182.446 168.284 182.53 168.34 182.595 168.406C182.67 168.471 182.721 168.536 182.749 168.602C182.535 168.798 182.329 169.101 182.133 169.512C181.947 169.913 181.853 170.422 181.853 171.038C181.853 171.411 181.905 171.77 182.007 172.116C182.119 172.461 182.306 172.769 182.567 173.04C182.838 173.32 183.207 173.539 183.673 173.698C184.14 173.866 184.733 173.95 185.451 173.95C186.245 173.95 186.893 173.852 187.397 173.656C187.911 173.469 188.307 173.231 188.587 172.942C188.877 172.652 189.077 172.358 189.189 172.06C189.301 171.761 189.357 171.5 189.357 171.276L190.757 171.22C190.757 171.985 190.529 172.657 190.071 173.236C189.623 173.814 188.998 174.262 188.195 174.58C187.393 174.897 186.464 175.056 185.409 175.056ZM188.657 171.752C188.321 171.752 188.055 171.705 187.859 171.612C187.673 171.509 187.533 171.383 187.439 171.234C187.355 171.075 187.313 170.912 187.313 170.744C187.313 170.566 187.341 170.408 187.397 170.268C187.5 170.342 187.659 170.426 187.873 170.52C188.097 170.604 188.354 170.646 188.643 170.646H192.129V171.752H188.657ZM192.129 171.752V170.646C192.241 170.646 192.316 170.692 192.353 170.786C192.391 170.879 192.409 171.014 192.409 171.192C192.409 171.36 192.391 171.495 192.353 171.598C192.316 171.7 192.241 171.752 192.129 171.752ZM196.307 171.752C195.812 171.752 195.369 171.64 194.977 171.416C194.594 171.182 194.291 170.865 194.067 170.464C193.852 170.062 193.745 169.61 193.745 169.106H195.145C195.145 169.348 195.187 169.586 195.271 169.82C195.355 170.053 195.481 170.249 195.649 170.408C195.826 170.566 196.045 170.646 196.307 170.646H196.867V171.752H196.307ZM192.135 171.752V170.646H192.583C192.853 170.646 193.073 170.566 193.241 170.408C193.409 170.249 193.535 170.053 193.619 169.82C193.703 169.586 193.745 169.348 193.745 169.106V164.584C193.745 164.276 193.703 164.019 193.619 163.814C193.544 163.599 193.446 163.426 193.325 163.296C193.213 163.165 193.105 163.072 193.003 163.016C193.031 162.96 193.087 162.894 193.171 162.82C193.255 162.736 193.362 162.666 193.493 162.61C193.633 162.544 193.791 162.512 193.969 162.512C194.174 162.512 194.365 162.563 194.543 162.666C194.72 162.768 194.865 162.936 194.977 163.17C195.089 163.403 195.145 163.711 195.145 164.094V169.106C195.145 169.61 195.033 170.062 194.809 170.464C194.594 170.865 194.295 171.182 193.913 171.416C193.53 171.64 193.087 171.752 192.583 171.752H192.135ZM192.135 171.752C192.032 171.752 191.962 171.7 191.925 171.598C191.878 171.495 191.855 171.36 191.855 171.192C191.855 171.014 191.878 170.879 191.925 170.786C191.962 170.692 192.032 170.646 192.135 170.646V171.752ZM196.867 171.752V170.646C196.979 170.646 197.053 170.692 197.091 170.786C197.128 170.879 197.147 171.014 197.147 171.192C197.147 171.36 197.128 171.495 197.091 171.598C197.053 171.7 196.979 171.752 196.867 171.752ZM196.865 171.752V170.646H198.937L198.783 171.024C198.466 170.753 198.214 170.403 198.027 169.974C197.841 169.535 197.747 169.008 197.747 168.392C197.747 167.832 197.827 167.346 197.985 166.936C198.144 166.516 198.363 166.166 198.643 165.886C198.923 165.596 199.241 165.382 199.595 165.242C199.959 165.102 200.337 165.032 200.729 165.032C201.009 165.032 201.28 165.069 201.541 165.144C201.812 165.209 202.055 165.307 202.269 165.438C202.484 165.568 202.657 165.732 202.787 165.928C202.918 166.124 202.983 166.348 202.983 166.6C202.983 166.842 202.923 167.034 202.801 167.174C202.68 167.304 202.54 167.388 202.381 167.426C202.269 167.463 202.143 167.482 202.003 167.482C201.863 167.482 201.751 167.472 201.667 167.454C201.667 167.118 201.602 166.852 201.471 166.656C201.35 166.46 201.187 166.315 200.981 166.222C200.776 166.119 200.547 166.054 200.295 166.026L200.967 166.124C200.603 166.086 200.286 166.147 200.015 166.306C199.745 166.455 199.53 166.702 199.371 167.048C199.222 167.384 199.147 167.818 199.147 168.35C199.147 169.059 199.292 169.619 199.581 170.03C199.871 170.44 200.291 170.646 200.841 170.646H202.577C202.755 170.646 202.89 170.697 202.983 170.8C203.086 170.893 203.137 171.024 203.137 171.192C203.137 171.36 203.086 171.495 202.983 171.598C202.89 171.7 202.755 171.752 202.577 171.752H196.865ZM196.865 171.752C196.763 171.752 196.693 171.7 196.655 171.598C196.609 171.495 196.585 171.36 196.585 171.192C196.585 171.014 196.609 170.879 196.655 170.786C196.693 170.692 196.763 170.646 196.865 170.646V171.752ZM216.657 171.752C216.162 171.752 215.719 171.64 215.327 171.416C214.944 171.182 214.641 170.865 214.417 170.464C214.193 170.062 214.081 169.61 214.081 169.106V168.42H215.495V169.106C215.495 169.348 215.537 169.586 215.621 169.82C215.705 170.053 215.831 170.249 215.999 170.408C216.176 170.566 216.396 170.646 216.657 170.646H217.217V171.752H216.657ZM208.915 175.644C208.775 175.644 208.654 175.62 208.551 175.574C208.448 175.527 208.36 175.476 208.285 175.42C208.21 175.364 208.15 175.312 208.103 175.266C208.187 175.2 208.271 175.112 208.355 175C208.439 174.897 208.514 174.757 208.579 174.58C208.644 174.412 208.677 174.206 208.677 173.964V173.04C208.677 172.564 208.798 172.144 209.041 171.78C209.293 171.425 209.634 171.15 210.063 170.954C210.502 170.748 211.001 170.646 211.561 170.646H212.261C212.849 170.646 213.297 170.45 213.605 170.058C213.922 169.666 214.081 169.106 214.081 168.378C214.081 167.622 213.927 167.062 213.619 166.698C213.32 166.324 212.882 166.138 212.303 166.138C211.967 166.138 211.715 166.18 211.547 166.264C211.379 166.338 211.29 166.446 211.281 166.586V171.416H209.867V166.586C209.867 166.138 210.091 165.769 210.539 165.48C210.996 165.181 211.584 165.032 212.303 165.032C213.283 165.032 214.058 165.326 214.627 165.914C215.206 166.502 215.495 167.323 215.495 168.378C215.495 169.087 215.369 169.694 215.117 170.198C214.874 170.702 214.534 171.089 214.095 171.36C213.666 171.621 213.176 171.752 212.625 171.752H211.561C211.188 171.752 210.894 171.812 210.679 171.934C210.464 172.064 210.31 172.228 210.217 172.424C210.124 172.62 210.077 172.825 210.077 173.04V174.062C210.077 174.444 210.021 174.752 209.909 174.986C209.797 175.219 209.652 175.387 209.475 175.49C209.298 175.592 209.111 175.644 208.915 175.644ZM217.217 171.752V170.646C217.329 170.646 217.404 170.692 217.441 170.786C217.478 170.879 217.497 171.014 217.497 171.192C217.497 171.36 217.478 171.495 217.441 171.598C217.404 171.7 217.329 171.752 217.217 171.752ZM221.395 171.752C220.9 171.752 220.457 171.64 220.065 171.416C219.682 171.182 219.379 170.865 219.155 170.464C218.94 170.062 218.833 169.61 218.833 169.106H220.233C220.233 169.348 220.275 169.586 220.359 169.82C220.443 170.053 220.569 170.249 220.737 170.408C220.914 170.566 221.133 170.646 221.395 170.646H221.955V171.752H221.395ZM217.223 171.752V170.646H217.671C217.941 170.646 218.161 170.566 218.329 170.408C218.497 170.249 218.623 170.053 218.707 169.82C218.791 169.586 218.833 169.348 218.833 169.106V164.584C218.833 164.276 218.791 164.019 218.707 163.814C218.632 163.599 218.534 163.426 218.413 163.296C218.301 163.165 218.193 163.072 218.091 163.016C218.119 162.96 218.175 162.894 218.259 162.82C218.343 162.736 218.45 162.666 218.581 162.61C218.721 162.544 218.879 162.512 219.057 162.512C219.262 162.512 219.453 162.563 219.631 162.666C219.808 162.768 219.953 162.936 220.065 163.17C220.177 163.403 220.233 163.711 220.233 164.094V169.106C220.233 169.61 220.121 170.062 219.897 170.464C219.682 170.865 219.383 171.182 219.001 171.416C218.618 171.64 218.175 171.752 217.671 171.752H217.223ZM217.223 171.752C217.12 171.752 217.05 171.7 217.013 171.598C216.966 171.495 216.943 171.36 216.943 171.192C216.943 171.014 216.966 170.879 217.013 170.786C217.05 170.692 217.12 170.646 217.223 170.646V171.752ZM221.955 171.752V170.646C222.067 170.646 222.141 170.692 222.179 170.786C222.216 170.879 222.235 171.014 222.235 171.192C222.235 171.36 222.216 171.495 222.179 171.598C222.141 171.7 222.067 171.752 221.955 171.752ZM221.953 171.752V170.646H224.361C224.912 170.646 225.434 170.562 225.929 170.394C226.433 170.226 226.881 170.002 227.273 169.722C227.674 169.442 227.992 169.124 228.225 168.77C228.458 168.406 228.575 168.032 228.575 167.65C228.575 167.164 228.384 166.791 228.001 166.53C227.618 166.268 227.068 166.138 226.349 166.138C225.63 166.138 225.08 166.268 224.697 166.53C224.314 166.791 224.123 167.164 224.123 167.65C224.123 168.032 224.24 168.406 224.473 168.77C224.706 169.124 225.019 169.442 225.411 169.722C225.812 170.002 226.265 170.226 226.769 170.394C227.273 170.562 227.796 170.646 228.337 170.646H230.745V171.752H228.337C227.693 171.752 227.04 171.649 226.377 171.444C225.714 171.238 225.108 170.954 224.557 170.59C224.006 170.216 223.563 169.782 223.227 169.288C222.891 168.784 222.723 168.238 222.723 167.65C222.723 167.183 222.83 166.786 223.045 166.46C223.26 166.124 223.544 165.853 223.899 165.648C224.263 165.433 224.655 165.279 225.075 165.186C225.504 165.083 225.929 165.032 226.349 165.032C226.769 165.032 227.189 165.083 227.609 165.186C228.038 165.279 228.43 165.428 228.785 165.634C229.14 165.839 229.424 166.11 229.639 166.446C229.863 166.772 229.975 167.174 229.975 167.65C229.975 168.238 229.807 168.784 229.471 169.288C229.144 169.782 228.706 170.216 228.155 170.59C227.604 170.954 226.998 171.238 226.335 171.444C225.672 171.649 225.014 171.752 224.361 171.752H221.953ZM221.953 171.752C221.85 171.752 221.78 171.7 221.743 171.598C221.696 171.495 221.673 171.36 221.673 171.192C221.673 171.014 221.696 170.879 221.743 170.786C221.78 170.692 221.85 170.646 221.953 170.646V171.752ZM230.745 171.752V170.646C230.857 170.646 230.932 170.692 230.969 170.786C231.006 170.879 231.025 171.014 231.025 171.192C231.025 171.36 231.006 171.495 230.969 171.598C230.932 171.7 230.857 171.752 230.745 171.752ZM230.744 171.752V170.646H231.78C232.023 170.646 232.228 170.585 232.396 170.464C232.564 170.342 232.699 170.188 232.802 170.002C232.905 169.815 232.984 169.614 233.04 169.4C233.096 169.185 233.129 168.975 233.138 168.77C233.157 168.564 233.166 168.392 233.166 168.252C233.166 167.944 233.138 167.631 233.082 167.314C233.026 166.987 232.919 166.665 232.76 166.348C232.601 166.021 232.359 165.727 232.032 165.466C232.069 165.4 232.121 165.335 232.186 165.27C232.261 165.204 232.354 165.148 232.466 165.102C232.578 165.055 232.713 165.032 232.872 165.032C233.18 165.032 233.441 165.134 233.656 165.34C233.88 165.536 234.057 165.797 234.188 166.124C234.319 166.45 234.412 166.805 234.468 167.188C234.533 167.561 234.566 167.925 234.566 168.28C234.566 169.362 234.319 170.212 233.824 170.828C233.339 171.444 232.657 171.752 231.78 171.752H230.744ZM230.744 171.752C230.641 171.752 230.571 171.7 230.534 171.598C230.487 171.495 230.464 171.36 230.464 171.192C230.464 171.014 230.487 170.879 230.534 170.786C230.571 170.692 230.641 170.646 230.744 170.646V171.752ZM233.95 164.108C233.726 164.108 233.53 164.028 233.362 163.87C233.203 163.702 233.124 163.506 233.124 163.282C233.124 163.048 233.203 162.852 233.362 162.694C233.53 162.526 233.726 162.442 233.95 162.442C234.183 162.442 234.379 162.526 234.538 162.694C234.697 162.852 234.776 163.048 234.776 163.282C234.776 163.506 234.697 163.702 234.538 163.87C234.379 164.028 234.183 164.108 233.95 164.108ZM231.85 164.108C231.626 164.108 231.43 164.028 231.262 163.87C231.103 163.702 231.024 163.506 231.024 163.282C231.024 163.048 231.103 162.852 231.262 162.694C231.43 162.526 231.626 162.442 231.85 162.442C232.083 162.442 232.279 162.526 232.438 162.694C232.597 162.852 232.676 163.048 232.676 163.282C232.676 163.506 232.597 163.702 232.438 163.87C232.279 164.028 232.083 164.108 231.85 164.108Z" fill="#585858"/>
</g>
<defs>
<filter id="filter0_dd_16_342" x="0" y="0" width="312" height="262" filterUnits="userSpaceOnUse" color-interpolation-filters="sRGB">
<feFlood flood-opacity="0" result="BackgroundImageFix"/>
<feColorMatrix in="SourceAlpha" type="matrix" values="0 0 0 0 0 0 0 0 0 0 0 0 0 0 0 0 0 0 127 0" result="hardAlpha"/>
<feMorphology radius="5" operator="erode" in="SourceAlpha" result="effect1_dropShadow_16_342"/>
<feOffset dy="10"/>
<feGaussianBlur stdDeviation="5"/>
<feComposite in2="hardAlpha" operator="out"/>
<feColorMatrix type="matrix" values="0 0 0 0 0 0 0 0 0 0 0 0 0 0 0 0 0 0 0.04 0"/>
<feBlend mode="normal" in2="BackgroundImageFix" result="effect1_dropShadow_16_342"/>
<feColorMatrix in="SourceAlpha" type="matrix" values="0 0 0 0 0 0 0 0 0 0 0 0 0 0 0 0 0 0 127 0" result="hardAlpha"/>
<feMorphology radius="5" operator="erode" in="SourceAlpha" result="effect2_dropShadow_16_342"/>
<feOffset dy="20"/>
<feGaussianBlur stdDeviation="12.5"/>
<feComposite in2="hardAlpha" operator="out"/>
<feColorMatrix type="matrix" values="0 0 0 0 0 0 0 0 0 0 0 0 0 0 0 0 0 0 0.1 0"/>
<feBlend mode="normal" in2="effect1_dropShadow_16_342" result="effect2_dropShadow_16_342"/>
<feBlend mode="normal" in="SourceGraphic" in2="effect2_dropShadow_16_342" result="shape"/>
</filter>
<linearGradient id="paint0_linear_16_342" x1="163.658" y1="117.752" x2="153.476" y2="81.8816" gradientUnits="userSpaceOnUse">
<stop offset="0.0625" stop-color="#6F7354"/>
<stop offset="1" stop-color="#CAD0A4"/>
</linearGradient>
<linearGradient id="paint1_linear_16_342" x1="159.471" y1="98.6925" x2="152.629" y2="78.2624" gradientUnits="userSpaceOnUse">
<stop offset="0.0625" stop-color="#444923"/>
<stop offset="1" stop-color="#B4BA8F"/>
</linearGradient>
<linearGradient id="paint2_linear_16_342" x1="164.785" y1="117.752" x2="158.804" y2="86.831" gradientUnits="userSpaceOnUse">
<stop offset="0.0625" stop-color="#444923"/>
<stop offset="1" stop-color="#B4BA8F"/>
</linearGradient>
<linearGradient id="paint3_linear_16_342" x1="187.803" y1="108.007" x2="184.045" y2="101.485" gradientUnits="userSpaceOnUse">
<stop offset="0.0625" stop-color="#444923"/>
<stop offset="1" stop-color="#B4BA8F"/>
</linearGradient>
<linearGradient id="paint4_linear_16_342" x1="184.541" y1="117.138" x2="172.564" y2="108.413" gradientUnits="userSpaceOnUse">
<stop offset="0.0625" stop-color="#6F7354"/>
<stop offset="1" stop-color="#CAD0A4"/>
</linearGradient>
<linearGradient id="paint5_linear_16_342" x1="184.144" y1="88.3849" x2="182.39" y2="82.3364" gradientUnits="userSpaceOnUse">
<stop offset="0.0625" stop-color="#6F7354"/>
<stop offset="1" stop-color="#CAD0A4"/>
</linearGradient>
<linearGradient id="paint6_linear_16_342" x1="184.799" y1="86.0094" x2="182.154" y2="78.6452" gradientUnits="userSpaceOnUse">
<stop offset="0.0625" stop-color="#6F7354"/>
<stop offset="1" stop-color="#CAD0A4"/>
</linearGradient>
<linearGradient id="paint7_linear_16_342" x1="185.426" y1="117.698" x2="180.47" y2="105.715" gradientUnits="userSpaceOnUse">
<stop offset="0.0625" stop-color="#6F7354"/>
<stop offset="1" stop-color="#CAD0A4"/>
</linearGradient>
<linearGradient id="paint8_linear_16_342" x1="142.06" y1="117.752" x2="135.575" y2="95.6299" gradientUnits="userSpaceOnUse">
<stop offset="0.0625" stop-color="#6F7354"/>
<stop offset="1" stop-color="#CAD0A4"/>
</linearGradient>
<linearGradient id="paint9_linear_16_342" x1="131.122" y1="117.752" x2="120.336" y2="100.397" gradientUnits="userSpaceOnUse">
<stop offset="0.0625" stop-color="#3B3F22"/>
<stop offset="1" stop-color="#CAD0A4"/>
</linearGradient>
<linearGradient id="paint10_linear_16_342" x1="161.757" y1="87.0501" x2="155.693" y2="63.1973" gradientUnits="userSpaceOnUse">
<stop offset="0.0625" stop-color="#6F7354"/>
<stop offset="1" stop-color="#CAD0A4"/>
</linearGradient>
<linearGradient id="paint11_linear_16_342" x1="160.558" y1="83.0456" x2="146.526" y2="51.9547" gradientUnits="userSpaceOnUse">
<stop offset="0.0625" stop-color="#6F7354"/>
<stop offset="1" stop-color="#CAD0A4"/>
</linearGradient>
<linearGradient id="paint12_linear_16_342" x1="161.699" y1="56.3485" x2="160.033" y2="43.1939" gradientUnits="userSpaceOnUse">
<stop offset="0.0625" stop-color="#6F7354"/>
<stop offset="1" stop-color="#CAD0A4"/>
</linearGradient>
</defs>
</svg>
