<svg xmlns="http://www.w3.org/2000/svg" width="312" height="262" fill="none" viewBox="0 0 312 262"><g filter="url(#filter0_dd_16_326)"><rect width="270" height="220" x="21" y="1" fill="#FFFCF4" stroke="#6F7354" stroke-dasharray="31 31" stroke-linecap="round" stroke-linejoin="round" stroke-width="2" rx="31"/><path fill="url(#paint0_linear_16_326)" fill-rule="evenodd" d="M186.672 62.661L186.773 62.7417C188.583 64.1302 189.705 66.2819 189.705 68.6488V106.492C189.71 107.997 189.418 109.488 188.844 110.879C188.271 112.271 187.428 113.536 186.363 114.601C185.298 115.667 184.033 116.513 182.64 117.09C181.247 117.667 179.754 117.964 178.245 117.964H133.755C132.246 117.964 130.753 117.667 129.36 117.09C127.967 116.513 126.702 115.667 125.637 114.601C124.573 113.536 123.729 112.271 123.156 110.879C122.582 109.488 122.29 107.997 122.295 106.492V68.6488C122.295 66.2819 123.417 64.1302 125.227 62.7417L125.325 62.6643L151.581 45.4102C152.845 44.4937 154.368 44 155.931 44C157.494 44 159.016 44.4937 160.281 45.4102L186.672 62.661ZM149.259 84.343V111.24H142.518V83.6706C142.518 80.3354 145.241 77.6188 148.585 77.6188H163.415C166.759 77.6188 169.482 80.3354 169.482 83.6706V111.24H162.741V84.343H149.259Z" clip-rule="evenodd"/><path fill="#2F2F2F" d="M105.066 150.212C103.938 150.212 102.96 150.02 102.132 149.636C101.304 149.264 100.662 148.718 100.206 147.998C99.7621 147.29 99.5401 146.432 99.5401 145.424C99.5401 144.992 99.5821 144.56 99.6661 144.128C99.7621 143.696 99.9001 143.3 100.08 142.94C100.26 142.58 100.482 142.292 100.746 142.076C101.022 141.86 101.346 141.752 101.718 141.752C102.03 141.752 102.288 141.818 102.492 141.95C102.696 142.082 102.846 142.232 102.942 142.4C103.05 142.568 103.104 142.718 103.104 142.85C102.864 143.03 102.648 143.228 102.456 143.444C102.276 143.648 102.132 143.924 102.024 144.272C101.928 144.608 101.88 145.064 101.88 145.64C101.88 146.504 102.15 147.164 102.69 147.62C103.242 148.076 104.046 148.304 105.102 148.304C106.014 148.304 106.656 148.1 107.028 147.692C107.412 147.296 107.604 146.588 107.604 145.568V136.73C107.604 136.298 107.55 135.986 107.442 135.794C107.334 135.602 107.214 135.476 107.082 135.416C106.95 135.356 106.848 135.308 106.776 135.272C106.776 135.164 106.818 135.02 106.902 134.84C106.998 134.648 107.148 134.474 107.352 134.318C107.568 134.162 107.85 134.084 108.198 134.084C108.558 134.084 108.864 134.18 109.116 134.372C109.38 134.552 109.584 134.804 109.728 135.128C109.872 135.452 109.944 135.824 109.944 136.244V145.568C109.944 146.984 109.56 148.112 108.792 148.952C108.024 149.792 106.782 150.212 105.066 150.212ZM115.038 145.964V144.056H116.892V145.964H115.038ZM112.842 150.086C112.542 150.086 112.29 150.02 112.086 149.888C111.882 149.756 111.726 149.6 111.618 149.42C111.522 149.252 111.474 149.108 111.474 148.988C111.726 148.796 111.942 148.58 112.122 148.34C112.302 148.1 112.44 147.788 112.536 147.404C112.644 147.032 112.698 146.552 112.698 145.964V138.44C112.698 138.092 112.806 137.822 113.022 137.63C113.25 137.426 113.532 137.324 113.868 137.324C114.216 137.324 114.498 137.426 114.714 137.63C114.93 137.822 115.038 138.092 115.038 138.44V145.964C115.038 146.492 114.99 147.002 114.894 147.494C114.81 147.986 114.678 148.424 114.498 148.808C114.33 149.204 114.108 149.516 113.832 149.744C113.556 149.972 113.226 150.086 112.842 150.086ZM116.892 145.964V144.056C117.024 144.056 117.114 144.146 117.162 144.326C117.222 144.494 117.252 144.722 117.252 145.01C117.252 145.298 117.222 145.532 117.162 145.712C117.114 145.88 117.024 145.964 116.892 145.964ZM113.886 136.154C113.514 136.154 113.196 136.028 112.932 135.776C112.68 135.512 112.554 135.206 112.554 134.858C112.554 134.498 112.68 134.192 112.932 133.94C113.196 133.688 113.514 133.562 113.886 133.562C114.234 133.562 114.534 133.688 114.786 133.94C115.05 134.192 115.182 134.498 115.182 134.858C115.182 135.206 115.05 135.512 114.786 135.776C114.534 136.028 114.234 136.154 113.886 136.154ZM116.897 145.964V144.056H117.815C118.091 144.056 118.313 143.978 118.481 143.822C118.661 143.666 118.793 143.468 118.877 143.228C118.961 142.976 119.003 142.73 119.003 142.49V138.512C119.003 138.236 119.087 137.972 119.255 137.72C119.423 137.456 119.729 137.324 120.173 137.324C120.617 137.324 120.923 137.456 121.091 137.72C121.259 137.972 121.343 138.236 121.343 138.512V142.49C121.343 143.15 121.187 143.744 120.875 144.272C120.575 144.8 120.161 145.214 119.633 145.514C119.105 145.814 118.499 145.964 117.815 145.964H116.897ZM122.531 145.964C121.859 145.964 121.253 145.814 120.713 145.514C120.185 145.214 119.765 144.8 119.453 144.272C119.153 143.744 119.003 143.15 119.003 142.49H121.343C121.343 142.73 121.385 142.976 121.469 143.228C121.553 143.468 121.685 143.666 121.865 143.822C122.045 143.978 122.267 144.056 122.531 144.056H123.449V145.964H122.531ZM123.449 145.964V144.056C123.581 144.056 123.671 144.146 123.719 144.326C123.779 144.494 123.809 144.722 123.809 145.01C123.809 145.298 123.779 145.532 123.719 145.712C123.671 145.88 123.581 145.964 123.449 145.964ZM116.897 145.964C116.777 145.964 116.687 145.88 116.627 145.712C116.567 145.532 116.537 145.298 116.537 145.01C116.537 144.722 116.567 144.494 116.627 144.326C116.687 144.146 116.777 144.056 116.897 144.056V145.964ZM120.191 136.154C119.819 136.154 119.501 136.028 119.237 135.776C118.985 135.512 118.859 135.206 118.859 134.858C118.859 134.498 118.985 134.192 119.237 133.94C119.501 133.688 119.819 133.562 120.191 133.562C120.539 133.562 120.839 133.688 121.091 133.94C121.355 134.192 121.487 134.498 121.487 134.858C121.487 135.206 121.355 135.512 121.091 135.776C120.839 136.028 120.539 136.154 120.191 136.154ZM133.192 145.964C132.52 145.964 131.914 145.814 131.374 145.514C130.846 145.214 130.426 144.8 130.114 144.272C129.814 143.744 129.664 143.15 129.664 142.49V141.698H132.004V142.49C132.004 142.73 132.046 142.976 132.13 143.228C132.214 143.468 132.346 143.666 132.526 143.822C132.706 143.978 132.928 144.056 133.192 144.056H134.11V145.964H133.192ZM123.454 145.964V144.056H127.99C128.542 144.056 128.956 143.846 129.232 143.426C129.52 142.994 129.664 142.394 129.664 141.626C129.664 140.774 129.508 140.162 129.196 139.79C128.884 139.418 128.416 139.232 127.792 139.232C127.612 139.232 127.444 139.244 127.288 139.268C127.132 139.28 127.012 139.298 126.928 139.322V145.964H124.588V139.322C124.588 138.746 124.882 138.272 125.47 137.9C126.07 137.516 126.844 137.324 127.792 137.324C129.076 137.324 130.096 137.702 130.852 138.458C131.62 139.214 132.004 140.27 132.004 141.626C132.004 142.538 131.836 143.318 131.5 143.966C131.164 144.614 130.708 145.112 130.132 145.46C129.568 145.796 128.932 145.964 128.224 145.964H123.454ZM123.454 145.964C123.334 145.964 123.244 145.88 123.184 145.712C123.124 145.532 123.094 145.298 123.094 145.01C123.094 144.722 123.124 144.494 123.184 144.326C123.244 144.146 123.334 144.056 123.454 144.056V145.964ZM134.11 145.964V144.056C134.242 144.056 134.332 144.146 134.38 144.326C134.44 144.494 134.47 144.722 134.47 145.01C134.47 145.298 134.44 145.532 134.38 145.712C134.332 145.88 134.242 145.964 134.11 145.964ZM134.106 145.964V144.056H135.024C135.3 144.056 135.522 143.978 135.69 143.822C135.87 143.666 136.002 143.468 136.086 143.228C136.17 142.976 136.212 142.73 136.212 142.49V136.73C136.212 136.298 136.158 135.986 136.05 135.794C135.942 135.602 135.822 135.476 135.69 135.416C135.558 135.356 135.456 135.308 135.384 135.272C135.384 135.164 135.426 135.02 135.51 134.84C135.606 134.648 135.756 134.474 135.96 134.318C136.176 134.162 136.458 134.084 136.806 134.084C137.166 134.084 137.472 134.18 137.724 134.372C137.988 134.552 138.192 134.804 138.336 135.128C138.48 135.452 138.552 135.824 138.552 136.244V142.49C138.552 143.15 138.396 143.744 138.084 144.272C137.784 144.8 137.37 145.214 136.842 145.514C136.314 145.814 135.708 145.964 135.024 145.964H134.106ZM134.106 145.964C133.986 145.964 133.896 145.88 133.836 145.712C133.776 145.532 133.746 145.298 133.746 145.01C133.746 144.722 133.776 144.494 133.836 144.326C133.896 144.146 133.986 144.056 134.106 144.056V145.964ZM142.489 145.964C142.045 145.964 141.739 145.838 141.571 145.586C141.403 145.322 141.319 145.04 141.319 144.74V136.73C141.319 136.298 141.265 135.986 141.157 135.794C141.049 135.602 140.929 135.476 140.797 135.416C140.665 135.356 140.563 135.308 140.491 135.272C140.491 135.176 140.533 135.032 140.617 134.84C140.713 134.648 140.863 134.474 141.067 134.318C141.283 134.162 141.571 134.084 141.931 134.084C142.279 134.084 142.579 134.18 142.831 134.372C143.095 134.552 143.299 134.804 143.443 135.128C143.587 135.452 143.659 135.824 143.659 136.244V144.776C143.659 145.052 143.575 145.322 143.407 145.586C143.239 145.838 142.933 145.964 142.489 145.964ZM161.827 145.964C161.155 145.964 160.549 145.814 160.009 145.514C159.481 145.214 159.061 144.8 158.749 144.272C158.449 143.744 158.299 143.15 158.299 142.49H160.639C160.639 142.73 160.681 142.976 160.765 143.228C160.849 143.468 160.981 143.666 161.161 143.822C161.341 143.978 161.563 144.056 161.827 144.056H162.745V145.964H161.827ZM155.761 150.212C154.633 150.212 153.655 150.02 152.827 149.636C151.999 149.264 151.357 148.718 150.901 147.998C150.457 147.29 150.235 146.432 150.235 145.424C150.235 144.992 150.277 144.56 150.361 144.128C150.457 143.696 150.595 143.3 150.775 142.94C150.955 142.58 151.177 142.292 151.441 142.076C151.717 141.86 152.041 141.752 152.413 141.752C152.725 141.752 152.983 141.818 153.187 141.95C153.391 142.082 153.541 142.232 153.637 142.4C153.745 142.568 153.799 142.718 153.799 142.85C153.559 143.03 153.343 143.228 153.151 143.444C152.971 143.648 152.827 143.924 152.719 144.272C152.623 144.608 152.575 145.064 152.575 145.64C152.575 146.504 152.845 147.164 153.385 147.62C153.937 148.076 154.741 148.304 155.797 148.304C156.709 148.304 157.351 148.1 157.723 147.692C158.107 147.296 158.299 146.588 158.299 145.568V138.548C158.299 138.248 158.383 137.972 158.551 137.72C158.719 137.456 159.025 137.324 159.469 137.324C159.913 137.324 160.219 137.456 160.387 137.72C160.555 137.972 160.639 138.248 160.639 138.548V145.568C160.639 146.984 160.255 148.112 159.487 148.952C158.719 149.792 157.477 150.212 155.761 150.212ZM162.745 145.964V144.056C162.877 144.056 162.967 144.146 163.015 144.326C163.075 144.494 163.105 144.722 163.105 145.01C163.105 145.298 163.075 145.532 163.015 145.712C162.967 145.88 162.877 145.964 162.745 145.964ZM155.455 137.324C155.083 137.324 154.765 137.198 154.501 136.946C154.249 136.682 154.123 136.376 154.123 136.028C154.123 135.668 154.249 135.362 154.501 135.11C154.765 134.858 155.083 134.732 155.455 134.732C155.803 134.732 156.103 134.858 156.355 135.11C156.619 135.362 156.751 135.668 156.751 136.028C156.751 136.376 156.619 136.682 156.355 136.946C156.103 137.198 155.803 137.324 155.455 137.324ZM162.741 145.964V144.056H167.277C167.829 144.056 168.243 143.846 168.519 143.426C168.807 142.994 168.951 142.394 168.951 141.626C168.951 140.774 168.795 140.162 168.483 139.79C168.171 139.418 167.703 139.232 167.079 139.232C166.899 139.232 166.731 139.244 166.575 139.268C166.419 139.28 166.299 139.298 166.215 139.322V145.964H163.875V139.322C163.875 138.746 164.169 138.272 164.757 137.9C165.357 137.516 166.131 137.324 167.079 137.324C168.363 137.324 169.383 137.702 170.139 138.458C170.907 139.214 171.291 140.27 171.291 141.626C171.291 142.538 171.123 143.318 170.787 143.966C170.451 144.614 169.995 145.112 169.419 145.46C168.855 145.796 168.219 145.964 167.511 145.964H162.741ZM162.741 145.964C162.621 145.964 162.531 145.88 162.471 145.712C162.411 145.532 162.381 145.298 162.381 145.01C162.381 144.722 162.411 144.494 162.471 144.326C162.531 144.146 162.621 144.056 162.741 144.056V145.964ZM188.43 145.964C187.758 145.964 187.152 145.814 186.612 145.514C186.084 145.214 185.664 144.8 185.352 144.272C185.052 143.744 184.902 143.15 184.902 142.49V141.698H187.242V142.49C187.242 142.73 187.284 142.976 187.368 143.228C187.452 143.468 187.584 143.666 187.764 143.822C187.944 143.978 188.166 144.056 188.43 144.056H189.348V145.964H188.43ZM179.016 150.968C178.668 150.968 178.386 150.89 178.17 150.734C177.966 150.578 177.816 150.404 177.72 150.212C177.636 150.02 177.594 149.876 177.594 149.78C177.666 149.744 177.768 149.696 177.9 149.636C178.032 149.576 178.152 149.444 178.26 149.24C178.368 149.048 178.422 148.742 178.422 148.322V147.08C178.422 146.492 178.59 145.97 178.926 145.514C179.262 145.058 179.712 144.704 180.276 144.452C180.84 144.188 181.47 144.056 182.166 144.056H183.228C183.78 144.056 184.194 143.846 184.47 143.426C184.758 143.006 184.902 142.4 184.902 141.608C184.902 140.768 184.746 140.162 184.434 139.79C184.122 139.418 183.648 139.232 183.012 139.232C182.856 139.232 182.694 139.244 182.526 139.268C182.37 139.28 182.25 139.298 182.166 139.322V145.964H179.826V139.322C179.826 138.746 180.12 138.272 180.708 137.9C181.308 137.516 182.082 137.324 183.03 137.324C184.314 137.324 185.334 137.702 186.09 138.458C186.858 139.214 187.242 140.27 187.242 141.626C187.242 142.538 187.074 143.318 186.738 143.966C186.402 144.614 185.946 145.112 185.37 145.46C184.806 145.796 184.17 145.964 183.462 145.964H182.166C181.854 145.964 181.59 146.012 181.374 146.108C181.17 146.216 181.014 146.354 180.906 146.522C180.81 146.69 180.762 146.876 180.762 147.08V148.808C180.762 149.228 180.69 149.6 180.546 149.924C180.402 150.248 180.198 150.5 179.934 150.68C179.682 150.872 179.376 150.968 179.016 150.968ZM189.348 145.964V144.056C189.48 144.056 189.57 144.146 189.618 144.326C189.678 144.494 189.708 144.722 189.708 145.01C189.708 145.298 189.678 145.532 189.618 145.712C189.57 145.88 189.48 145.964 189.348 145.964ZM194.988 145.964C194.316 145.964 193.71 145.814 193.17 145.514C192.642 145.214 192.222 144.8 191.91 144.272C191.61 143.744 191.46 143.15 191.46 142.49H193.8C193.8 142.73 193.842 142.976 193.926 143.228C194.01 143.468 194.142 143.666 194.322 143.822C194.502 143.978 194.724 144.056 194.988 144.056H195.906V145.964H194.988ZM189.354 145.964V144.056H190.272C190.548 144.056 190.77 143.978 190.938 143.822C191.118 143.666 191.25 143.468 191.334 143.228C191.418 142.976 191.46 142.73 191.46 142.49V136.73C191.46 136.298 191.406 135.986 191.298 135.794C191.19 135.602 191.07 135.476 190.938 135.416C190.806 135.356 190.704 135.308 190.632 135.272C190.632 135.164 190.674 135.02 190.758 134.84C190.854 134.648 191.004 134.474 191.208 134.318C191.424 134.162 191.706 134.084 192.054 134.084C192.414 134.084 192.72 134.18 192.972 134.372C193.236 134.552 193.44 134.804 193.584 135.128C193.728 135.452 193.8 135.824 193.8 136.244V142.49C193.8 143.15 193.644 143.744 193.332 144.272C193.032 144.8 192.618 145.214 192.09 145.514C191.562 145.814 190.956 145.964 190.272 145.964H189.354ZM189.354 145.964C189.234 145.964 189.144 145.88 189.084 145.712C189.024 145.532 188.994 145.298 188.994 145.01C188.994 144.722 189.024 144.494 189.084 144.326C189.144 144.146 189.234 144.056 189.354 144.056V145.964ZM195.906 145.964V144.056C196.038 144.056 196.128 144.146 196.176 144.326C196.236 144.494 196.266 144.722 196.266 145.01C196.266 145.298 196.236 145.532 196.176 145.712C196.128 145.88 196.038 145.964 195.906 145.964ZM195.911 145.964V144.056H199.007C199.643 144.056 200.249 143.96 200.825 143.768C201.413 143.576 201.935 143.324 202.391 143.012C202.859 142.688 203.225 142.328 203.489 141.932C203.753 141.524 203.885 141.11 203.885 140.69C203.885 140.222 203.699 139.862 203.327 139.61C202.955 139.358 202.367 139.232 201.563 139.232C200.771 139.232 200.183 139.358 199.799 139.61C199.427 139.85 199.241 140.21 199.241 140.69C199.241 141.11 199.373 141.524 199.637 141.932C199.913 142.328 200.279 142.688 200.735 143.012C201.191 143.324 201.713 143.576 202.301 143.768C202.889 143.96 203.495 144.056 204.119 144.056H207.215V145.964H204.119C203.291 145.964 202.451 145.832 201.599 145.568C200.747 145.304 199.967 144.938 199.259 144.47C198.551 143.99 197.981 143.432 197.549 142.796C197.117 142.148 196.901 141.446 196.901 140.69C196.901 140.09 197.039 139.58 197.315 139.16C197.591 138.728 197.957 138.38 198.413 138.116C198.881 137.84 199.385 137.642 199.925 137.522C200.477 137.39 201.023 137.324 201.563 137.324C202.103 137.324 202.643 137.39 203.183 137.522C203.735 137.642 204.239 137.834 204.695 138.098C205.151 138.362 205.517 138.71 205.793 139.142C206.081 139.562 206.225 140.078 206.225 140.69C206.225 141.446 206.009 142.148 205.577 142.796C205.157 143.432 204.593 143.99 203.885 144.47C203.177 144.938 202.397 145.304 201.545 145.568C200.693 145.832 199.847 145.964 199.007 145.964H195.911ZM195.911 145.964C195.791 145.964 195.701 145.88 195.641 145.712C195.581 145.532 195.551 145.298 195.551 145.01C195.551 144.722 195.581 144.494 195.641 144.326C195.701 144.146 195.791 144.056 195.911 144.056V145.964ZM207.215 145.964V144.056C207.347 144.056 207.437 144.146 207.485 144.326C207.545 144.494 207.575 144.722 207.575 145.01C207.575 145.298 207.545 145.532 207.485 145.712C207.437 145.88 207.347 145.964 207.215 145.964ZM207.214 145.964V144.056H208.87C209.002 144.056 209.128 144.02 209.248 143.948C209.368 143.876 209.482 143.774 209.59 143.642C209.698 143.498 209.788 143.318 209.86 143.102C209.944 142.874 210.004 142.61 210.04 142.31C210.088 141.998 210.112 141.65 210.112 141.266C210.112 140.678 210.058 140.21 209.95 139.862C209.854 139.514 209.716 139.232 209.536 139.016C209.356 138.8 209.14 138.602 208.888 138.422C208.888 138.29 208.936 138.14 209.032 137.972C209.14 137.804 209.296 137.654 209.5 137.522C209.716 137.39 209.974 137.324 210.274 137.324C210.646 137.324 210.97 137.432 211.246 137.648C211.522 137.864 211.744 138.158 211.912 138.53C212.092 138.89 212.224 139.31 212.308 139.79C212.404 140.258 212.452 140.756 212.452 141.284C212.452 142.736 212.14 143.882 211.516 144.722C210.892 145.55 210.01 145.964 208.87 145.964H207.214ZM207.214 145.964C207.094 145.964 207.004 145.88 206.944 145.712C206.884 145.532 206.854 145.298 206.854 145.01C206.854 144.722 206.884 144.494 206.944 144.326C207.004 144.146 207.094 144.056 207.214 144.056V145.964ZM211.732 136.064C211.42 136.064 211.144 135.95 210.904 135.722C210.676 135.494 210.562 135.218 210.562 134.894C210.562 134.57 210.676 134.294 210.904 134.066C211.144 133.838 211.42 133.724 211.732 133.724C212.068 133.724 212.344 133.838 212.56 134.066C212.788 134.294 212.902 134.57 212.902 134.894C212.902 135.218 212.788 135.494 212.56 135.722C212.344 135.95 212.068 136.064 211.732 136.064ZM208.816 136.064C208.504 136.064 208.228 135.95 207.988 135.722C207.76 135.494 207.646 135.218 207.646 134.894C207.646 134.57 207.76 134.294 207.988 134.066C208.228 133.838 208.504 133.724 208.816 133.724C209.14 133.724 209.416 133.838 209.644 134.066C209.872 134.294 209.986 134.57 209.986 134.894C209.986 135.218 209.872 135.494 209.644 135.722C209.416 135.95 209.14 136.064 208.816 136.064Z"/><path fill="#585858" d="M81.9461 175.268C80.0141 175.268 78.7167 174.852 78.0541 174.022C77.4007 173.2 77.0741 172.318 77.0741 171.376C77.0741 170.89 77.1441 170.47 77.2841 170.116C77.4334 169.761 77.6247 169.495 77.8581 169.318C78.0914 169.14 78.3481 169.052 78.6281 169.052C78.8241 169.052 78.9874 169.098 79.1181 169.192C79.2581 169.276 79.3467 169.374 79.3841 169.486C79.1414 169.682 78.9314 169.99 78.7541 170.41C78.5861 170.83 78.5021 171.264 78.5021 171.712C78.5021 172.421 78.7727 173.004 79.3141 173.462C79.8554 173.928 80.7841 174.162 82.1001 174.162C82.8747 174.162 83.5234 174.064 84.0461 173.868C84.5781 173.681 84.9747 173.42 85.2361 173.084C85.4974 172.757 85.6281 172.384 85.6281 171.964H85.2501C84.7834 171.964 84.4427 171.866 84.2281 171.67C84.0134 171.464 83.9061 171.217 83.9061 170.928C83.9061 170.769 83.9341 170.62 83.9901 170.48C84.1114 170.573 84.2841 170.662 84.5081 170.746C84.7321 170.82 84.9747 170.858 85.2361 170.858H89.0021V171.964H87.0141C87.0141 172.496 86.8507 173.014 86.5241 173.518C86.2067 174.022 85.6887 174.437 84.9701 174.764C84.2607 175.1 83.3554 175.268 82.2541 175.268H81.9461ZM81.0081 177.788C80.7841 177.788 80.5881 177.704 80.4201 177.536C80.2614 177.377 80.1821 177.186 80.1821 176.962C80.1821 176.728 80.2614 176.528 80.4201 176.36C80.5881 176.201 80.7841 176.122 81.0081 176.122C81.2414 176.122 81.4374 176.201 81.5961 176.36C81.7547 176.528 81.8341 176.728 81.8341 176.962C81.8341 177.186 81.7547 177.377 81.5961 177.536C81.4374 177.704 81.2414 177.788 81.0081 177.788ZM83.1081 177.788C82.8841 177.788 82.6881 177.704 82.5201 177.536C82.3614 177.377 82.2821 177.186 82.2821 176.962C82.2821 176.728 82.3614 176.528 82.5201 176.36C82.6881 176.201 82.8841 176.122 83.1081 176.122C83.3414 176.122 83.5374 176.201 83.6961 176.36C83.8547 176.528 83.9341 176.728 83.9341 176.962C83.9341 177.186 83.8547 177.377 83.6961 177.536C83.5374 177.704 83.3414 177.788 83.1081 177.788ZM92.529 165.244C93.117 165.244 93.6116 165.332 94.013 165.51C94.4143 165.678 94.7316 166.014 94.965 166.518C95.2076 167.012 95.329 167.726 95.329 168.66C95.329 169.808 95.1283 170.652 94.727 171.194C94.3256 171.726 93.6676 171.992 92.753 171.992C92.2023 171.992 91.7216 171.889 91.311 171.684C90.9936 171.87 90.6063 171.964 90.149 171.964H89.001V170.858H89.911V167.792C89.911 166.821 90.1303 166.154 90.569 165.79C91.017 165.426 91.6703 165.244 92.529 165.244ZM92.375 170.858C93.019 170.858 93.439 170.62 93.635 170.144C93.831 169.668 93.929 169.159 93.929 168.618C93.929 167.852 93.8123 167.283 93.579 166.91C93.3456 166.536 92.991 166.35 92.515 166.35C92.1603 166.35 91.871 166.457 91.647 166.672C91.4323 166.886 91.325 167.241 91.325 167.736V170.858H92.375ZM103.793 171.964H102.561V172.846C102.561 173.172 102.501 173.508 102.379 173.854C102.258 174.208 102.034 174.516 101.707 174.778C101.381 175.039 100.933 175.17 100.363 175.17C99.8594 175.17 99.4534 175.062 99.1454 174.848C98.8374 174.633 98.6461 174.39 98.5714 174.12C98.6927 174.176 98.8514 174.227 99.0474 174.274C99.2434 174.32 99.4301 174.344 99.6074 174.344C100.055 174.344 100.424 174.222 100.713 173.98C101.003 173.746 101.147 173.434 101.147 173.042L101.161 171.964L99.7334 171.992C98.8187 171.992 98.1561 171.726 97.7454 171.194C97.3441 170.652 97.1434 169.808 97.1434 168.66C97.1434 167.726 97.2601 167.012 97.4934 166.518C97.7361 166.014 98.0581 165.678 98.4594 165.51C98.8607 165.332 99.3554 165.244 99.9434 165.244C100.802 165.244 101.451 165.426 101.889 165.79C102.337 166.154 102.561 166.821 102.561 167.792V170.858H103.793V171.964ZM98.5434 168.618C98.5434 169.168 98.6414 169.682 98.8374 170.158C99.0334 170.624 99.4534 170.858 100.097 170.858H101.147V167.736C101.147 167.241 101.035 166.886 100.811 166.672C100.597 166.457 100.312 166.35 99.9574 166.35C99.4814 166.35 99.1267 166.536 98.8934 166.91C98.6601 167.283 98.5434 167.852 98.5434 168.618ZM108.526 170.858V171.964H107.028C106.496 171.964 106.053 171.833 105.698 171.572C105.334 171.805 104.937 171.936 104.508 171.964H103.794V170.858H104.508C104.825 170.848 105.124 170.769 105.404 170.62V165.958C105.404 165.482 105.637 165.244 106.104 165.244C106.328 165.244 106.501 165.304 106.622 165.426C106.743 165.547 106.804 165.724 106.804 165.958V169.766C106.804 170.494 106.949 170.858 107.238 170.858H108.526ZM105.054 174.764C104.83 174.764 104.634 174.68 104.466 174.512C104.307 174.353 104.228 174.162 104.228 173.938C104.228 173.704 104.307 173.504 104.466 173.336C104.634 173.177 104.83 173.098 105.054 173.098C105.287 173.098 105.483 173.177 105.642 173.336C105.801 173.504 105.88 173.704 105.88 173.938C105.88 174.162 105.801 174.353 105.642 174.512C105.483 174.68 105.287 174.764 105.054 174.764ZM107.154 174.764C106.93 174.764 106.734 174.68 106.566 174.512C106.407 174.353 106.328 174.162 106.328 173.938C106.328 173.704 106.407 173.504 106.566 173.336C106.734 173.177 106.93 173.098 107.154 173.098C107.387 173.098 107.583 173.177 107.742 173.336C107.901 173.504 107.98 173.704 107.98 173.938C107.98 174.162 107.901 174.353 107.742 174.512C107.583 174.68 107.387 174.764 107.154 174.764ZM108.524 170.858H109.448C109.747 170.858 109.938 170.732 110.022 170.48C110.116 170.218 110.162 169.854 110.162 169.388V164.796C110.162 164.394 110.088 164.063 109.938 163.802C109.789 163.54 109.621 163.349 109.434 163.228C109.481 163.125 109.593 163.018 109.77 162.906C109.957 162.784 110.167 162.724 110.4 162.724C110.736 162.724 111.016 162.854 111.24 163.116C111.464 163.368 111.576 163.764 111.576 164.306V169.374C111.567 170.204 111.371 170.844 110.988 171.292C110.615 171.74 110.125 171.964 109.518 171.964H108.524V170.858ZM114.617 171.964C114.337 171.964 114.151 171.884 114.057 171.726C113.973 171.567 113.931 171.343 113.931 171.054V164.796C113.931 164.385 113.857 164.054 113.707 163.802C113.558 163.54 113.385 163.349 113.189 163.228C113.236 163.125 113.348 163.018 113.525 162.906C113.712 162.784 113.927 162.724 114.169 162.724C114.505 162.724 114.781 162.854 114.995 163.116C115.219 163.368 115.331 163.764 115.331 164.306V171.054C115.331 171.343 115.285 171.567 115.191 171.726C115.098 171.884 114.907 171.964 114.617 171.964ZM131.85 170.858V171.964H130.38C129.914 171.964 129.526 171.875 129.218 171.698C128.929 171.875 128.593 171.964 128.21 171.964H122.26C121.644 171.964 121.187 171.772 120.888 171.39C120.59 171.007 120.44 170.517 120.44 169.92V168.24C120.44 168.025 120.501 167.857 120.622 167.736C120.753 167.614 120.926 167.554 121.14 167.554C121.364 167.554 121.537 167.614 121.658 167.736C121.78 167.857 121.84 168.034 121.84 168.268V169.584C121.84 170.05 121.915 170.382 122.064 170.578C122.214 170.764 122.48 170.858 122.862 170.858H127.776C128.122 170.858 128.388 170.713 128.574 170.424C128.761 170.134 128.854 169.794 128.854 169.402V164.796C128.854 164.385 128.78 164.054 128.63 163.802C128.481 163.54 128.308 163.349 128.112 163.228C128.159 163.125 128.271 163.018 128.448 162.906C128.635 162.784 128.85 162.724 129.092 162.724C129.428 162.724 129.704 162.854 129.918 163.116C130.142 163.368 130.254 163.764 130.254 164.306V169.36C130.254 169.948 130.156 170.447 129.96 170.858H131.85ZM124.108 167.512C124.006 167.409 123.954 167.297 123.954 167.176C123.954 167.064 123.996 166.97 124.08 166.896C124.164 166.812 124.276 166.77 124.416 166.77C124.491 166.77 124.547 166.774 124.584 166.784C124.463 166.672 124.351 166.518 124.248 166.322C124.146 166.116 124.094 165.897 124.094 165.664C124.094 165.29 124.225 164.978 124.486 164.726C124.757 164.474 125.126 164.348 125.592 164.348C126.19 164.348 126.488 164.544 126.488 164.936C126.488 165.094 126.446 165.211 126.362 165.286C126.278 165.36 126.18 165.398 126.068 165.398C125.984 165.398 125.91 165.374 125.844 165.328C125.854 165.178 125.802 165.052 125.69 164.95C125.588 164.838 125.466 164.772 125.326 164.754C125.233 164.791 125.144 164.88 125.06 165.02C124.976 165.16 124.934 165.337 124.934 165.552C124.934 165.925 125.042 166.191 125.256 166.35C125.48 166.499 125.737 166.574 126.026 166.574C126.129 166.574 126.292 166.555 126.516 166.518C126.619 166.518 126.694 166.546 126.74 166.602C126.796 166.658 126.824 166.728 126.824 166.812C126.824 166.886 126.806 166.952 126.768 167.008C126.74 167.064 126.703 167.092 126.656 167.092C125.023 167.232 124.174 167.372 124.108 167.512ZM131.849 170.858H132.773C133.071 170.858 133.263 170.732 133.347 170.48C133.44 170.218 133.487 169.854 133.487 169.388V164.796C133.487 164.394 133.412 164.063 133.263 163.802C133.113 163.54 132.945 163.349 132.759 163.228C132.805 163.125 132.917 163.018 133.095 162.906C133.281 162.784 133.491 162.724 133.725 162.724C134.061 162.724 134.341 162.854 134.565 163.116C134.789 163.368 134.901 163.764 134.901 164.306V169.374C134.891 170.204 134.695 170.844 134.313 171.292C133.939 171.74 133.449 171.964 132.843 171.964H131.849V170.858ZM139.523 165.244C140.382 165.244 141.031 165.426 141.469 165.79C141.917 166.154 142.141 166.821 142.141 167.792V172.846C142.141 173.172 142.081 173.508 141.959 173.854C141.838 174.208 141.614 174.516 141.287 174.778C140.961 175.039 140.513 175.17 139.943 175.17C139.439 175.17 139.033 175.062 138.725 174.848C138.417 174.633 138.226 174.39 138.151 174.12C138.273 174.176 138.431 174.227 138.627 174.274C138.823 174.32 139.01 174.344 139.187 174.344C139.635 174.344 140.004 174.222 140.293 173.98C140.583 173.746 140.727 173.434 140.727 173.042L140.741 171.964L139.313 171.992C138.399 171.992 137.736 171.726 137.325 171.194C136.924 170.652 136.723 169.808 136.723 168.66C136.723 167.726 136.84 167.012 137.073 166.518C137.316 166.014 137.638 165.678 138.039 165.51C138.441 165.332 138.935 165.244 139.523 165.244ZM138.123 168.618C138.123 169.168 138.221 169.682 138.417 170.158C138.613 170.624 139.033 170.858 139.677 170.858H140.727V167.736C140.727 167.241 140.615 166.886 140.391 166.672C140.177 166.457 139.892 166.35 139.537 166.35C139.061 166.35 138.707 166.536 138.473 166.91C138.24 167.283 138.123 167.852 138.123 168.618ZM150.592 170.858V171.964H148.996C148.464 171.964 148.021 171.838 147.666 171.586C147.265 171.838 146.812 171.964 146.308 171.964H144.236C144.077 171.964 143.965 171.908 143.9 171.796C143.835 171.684 143.802 171.562 143.802 171.432C143.802 171.282 143.844 171.152 143.928 171.04C144.012 170.918 144.152 170.858 144.348 170.858H145.118C146.033 170.858 146.705 170.624 147.134 170.158C147.563 169.691 147.778 169.112 147.778 168.422C147.778 167.815 147.629 167.32 147.33 166.938C147.031 166.546 146.649 166.34 146.182 166.322C145.566 166.518 145.258 166.966 145.258 167.666C145.146 167.684 145.039 167.694 144.936 167.694C144.787 167.694 144.661 167.675 144.558 167.638C144.381 167.6 144.236 167.512 144.124 167.372C144.012 167.232 143.956 167.045 143.956 166.812C143.956 166.336 144.18 165.958 144.628 165.678C145.085 165.388 145.613 165.244 146.21 165.244C146.798 165.244 147.316 165.393 147.764 165.692C148.221 165.99 148.571 166.382 148.814 166.868C149.066 167.344 149.192 167.848 149.192 168.38C149.192 168.762 149.127 169.182 148.996 169.64C148.875 170.088 148.683 170.494 148.422 170.858H150.592ZM146.588 166.238C146.56 166.238 146.537 166.242 146.518 166.252L146.588 166.238ZM150.593 170.858H153.897C154.27 170.858 154.611 170.816 154.919 170.732C155.227 170.648 155.493 170.447 155.717 170.13C155.95 169.812 156.067 169.341 156.067 168.716C156.067 167.904 155.829 167.306 155.353 166.924C154.886 166.541 154.13 166.35 153.085 166.35L152.119 166.364C151.512 166.364 151.167 166.046 151.083 165.412C151.073 165.365 151.069 165.3 151.069 165.216C151.069 165.048 151.087 164.945 151.125 164.908C151.386 165.169 151.764 165.3 152.259 165.3L152.777 165.272C153.131 165.253 153.416 165.244 153.631 165.244C154.863 165.244 155.81 165.542 156.473 166.14C157.135 166.737 157.467 167.582 157.467 168.674C157.467 169.616 157.229 170.4 156.753 171.026C156.277 171.651 155.558 171.964 154.597 171.964H150.593V170.858ZM154.401 174.806C154.158 174.806 153.948 174.722 153.771 174.554C153.603 174.386 153.519 174.185 153.519 173.952C153.519 173.709 153.603 173.504 153.771 173.336C153.948 173.168 154.158 173.084 154.401 173.084C154.634 173.084 154.835 173.168 155.003 173.336C155.171 173.513 155.255 173.718 155.255 173.952C155.255 174.185 155.171 174.386 155.003 174.554C154.835 174.722 154.634 174.806 154.401 174.806ZM173.132 170.858V171.964H171.466C171.167 171.964 170.91 171.931 170.696 171.866C170.49 171.8 170.299 171.702 170.122 171.572C169.711 171.833 169.226 171.964 168.666 171.964H164.452C163.826 171.964 163.364 171.786 163.066 171.432C162.776 171.068 162.632 170.592 162.632 170.004V166.644C162.632 166.429 162.692 166.261 162.814 166.14C162.944 166.018 163.117 165.958 163.332 165.958C163.556 165.958 163.728 166.018 163.85 166.14C163.971 166.261 164.032 166.438 164.032 166.672V169.584C164.032 170.05 164.106 170.382 164.256 170.578C164.405 170.764 164.671 170.858 165.054 170.858H168.736C169.277 170.858 169.641 170.606 169.828 170.102C170.024 169.588 170.122 169.066 170.122 168.534C170.122 167.936 170.042 167.404 169.884 166.938C169.734 166.462 169.44 166.042 169.002 165.678C169.067 165.566 169.17 165.468 169.31 165.384C169.45 165.29 169.636 165.244 169.87 165.244C170.439 165.244 170.859 165.524 171.13 166.084C171.4 166.634 171.536 167.316 171.536 168.128C171.536 168.641 171.48 169.136 171.368 169.612C171.256 170.088 171.078 170.503 170.836 170.858H173.132ZM166.776 174.806C166.533 174.806 166.323 174.722 166.146 174.554C165.978 174.386 165.894 174.185 165.894 173.952C165.894 173.709 165.978 173.504 166.146 173.336C166.323 173.168 166.533 173.084 166.776 173.084C167.009 173.084 167.21 173.168 167.378 173.336C167.546 173.513 167.63 173.718 167.63 173.952C167.63 174.185 167.546 174.386 167.378 174.554C167.21 174.722 167.009 174.806 166.776 174.806ZM183.484 165.244C184.062 165.244 184.492 165.528 184.772 166.098C185.052 166.658 185.192 167.362 185.192 168.212C185.192 169.192 184.977 170.064 184.548 170.83C184.128 171.586 183.376 171.964 182.294 171.964H182.126C181.631 171.964 181.22 171.903 180.894 171.782C180.567 171.66 180.259 171.45 179.97 171.152C179.811 171.366 179.601 171.558 179.34 171.726C179.078 171.884 178.798 171.964 178.5 171.964H176.974C176.404 171.964 175.91 171.796 175.49 171.46C175.284 171.628 175.074 171.754 174.86 171.838C174.645 171.922 174.407 171.964 174.146 171.964H173.138V170.858H173.74C174.178 170.858 174.468 170.76 174.608 170.564C174.757 170.358 174.832 170.078 174.832 169.724V166.756C174.832 166.261 175.065 166.014 175.532 166.014C175.784 166.014 175.966 166.074 176.078 166.196C176.19 166.317 176.246 166.504 176.246 166.756V169.5C176.246 169.966 176.283 170.307 176.358 170.522C176.432 170.736 176.591 170.848 176.834 170.858H177.996C178.416 170.858 178.705 170.76 178.864 170.564C179.022 170.368 179.102 170.111 179.102 169.794V166.434C179.102 166.182 179.167 165.995 179.298 165.874C179.438 165.743 179.62 165.678 179.844 165.678C180.292 165.678 180.516 165.93 180.516 166.434V169.206C180.516 169.635 180.576 170.018 180.698 170.354C180.819 170.69 181.048 170.858 181.384 170.858H182.392C182.933 170.858 183.297 170.606 183.484 170.102C183.68 169.598 183.778 169.094 183.778 168.59C183.778 167.236 183.395 166.261 182.63 165.664C182.788 165.384 183.073 165.244 183.484 165.244ZM189.599 171.964C188.992 171.964 188.497 171.74 188.115 171.292C187.741 170.844 187.55 170.204 187.541 169.374V164.796C187.541 164.385 187.466 164.054 187.317 163.802C187.167 163.54 186.995 163.349 186.799 163.228C186.845 163.125 186.957 163.018 187.135 162.906C187.321 162.784 187.536 162.724 187.779 162.724C188.115 162.724 188.39 162.854 188.605 163.116C188.829 163.368 188.941 163.764 188.941 164.306V169.402C188.941 169.794 189.034 170.134 189.221 170.424C189.407 170.713 189.673 170.858 190.019 170.858H190.523V171.964H189.599ZM195.26 170.858V171.964H193.762C193.23 171.964 192.787 171.833 192.432 171.572C192.068 171.805 191.672 171.936 191.242 171.964H190.528V170.858H191.242C191.56 170.848 191.858 170.769 192.138 170.62V165.958C192.138 165.482 192.372 165.244 192.838 165.244C193.062 165.244 193.235 165.304 193.356 165.426C193.478 165.547 193.538 165.724 193.538 165.958V169.766C193.538 170.494 193.683 170.858 193.972 170.858H195.26ZM192.852 164.334C192.61 164.334 192.4 164.25 192.222 164.082C192.054 163.914 191.97 163.713 191.97 163.48C191.97 163.237 192.054 163.032 192.222 162.864C192.4 162.696 192.61 162.612 192.852 162.612C193.086 162.612 193.286 162.7 193.454 162.878C193.622 163.046 193.706 163.246 193.706 163.48C193.706 163.713 193.622 163.914 193.454 164.082C193.286 164.25 193.086 164.334 192.852 164.334ZM195.259 170.858H196.295C196.836 170.858 197.2 170.615 197.387 170.13C197.583 169.644 197.681 169.112 197.681 168.534C197.681 167.946 197.601 167.414 197.443 166.938C197.284 166.462 196.985 166.042 196.547 165.678C196.743 165.388 197.032 165.244 197.415 165.244C197.984 165.244 198.404 165.524 198.675 166.084C198.945 166.634 199.081 167.316 199.081 168.128C199.081 169.173 198.857 170.074 198.409 170.83C197.961 171.586 197.233 171.964 196.225 171.964H195.259V170.858ZM196.379 164.32C196.155 164.32 195.959 164.24 195.791 164.082C195.632 163.914 195.553 163.718 195.553 163.494C195.553 163.26 195.632 163.064 195.791 162.906C195.959 162.738 196.155 162.654 196.379 162.654C196.612 162.654 196.808 162.738 196.967 162.906C197.125 163.064 197.205 163.26 197.205 163.494C197.205 163.718 197.125 163.914 196.967 164.082C196.808 164.24 196.612 164.32 196.379 164.32ZM198.479 164.32C198.255 164.32 198.059 164.24 197.891 164.082C197.732 163.914 197.653 163.718 197.653 163.494C197.653 163.26 197.732 163.064 197.891 162.906C198.059 162.738 198.255 162.654 198.479 162.654C198.712 162.654 198.908 162.738 199.067 162.906C199.225 163.064 199.305 163.26 199.305 163.494C199.305 163.718 199.225 163.914 199.067 164.082C198.908 164.24 198.712 164.32 198.479 164.32ZM206.219 171.964C205.594 171.964 205.132 171.786 204.833 171.432C204.544 171.068 204.399 170.592 204.399 170.004V166.644C204.399 166.429 204.46 166.261 204.581 166.14C204.712 166.018 204.885 165.958 205.099 165.958C205.323 165.958 205.496 166.018 205.617 166.14C205.739 166.261 205.799 166.438 205.799 166.672V169.584C205.799 170.05 205.874 170.382 206.023 170.578C206.173 170.764 206.439 170.858 206.821 170.858H210.503C211.045 170.858 211.409 170.606 211.595 170.102C211.791 169.588 211.889 169.066 211.889 168.534C211.889 167.936 211.81 167.404 211.651 166.938C211.502 166.462 211.208 166.042 210.769 165.678C210.835 165.566 210.937 165.468 211.077 165.384C211.217 165.29 211.404 165.244 211.637 165.244C212.207 165.244 212.627 165.524 212.897 166.084C213.168 166.634 213.303 167.316 213.303 168.128C213.303 169.173 213.079 170.074 212.631 170.83C212.183 171.586 211.451 171.964 210.433 171.964H206.219ZM207.591 164.95C207.367 164.95 207.171 164.87 207.003 164.712C206.845 164.544 206.765 164.348 206.765 164.124C206.765 163.89 206.845 163.694 207.003 163.536C207.171 163.368 207.367 163.284 207.591 163.284C207.825 163.284 208.021 163.368 208.179 163.536C208.338 163.694 208.417 163.89 208.417 164.124C208.417 164.348 208.338 164.544 208.179 164.712C208.021 164.87 207.825 164.95 207.591 164.95ZM209.691 164.95C209.467 164.95 209.271 164.87 209.103 164.712C208.945 164.544 208.865 164.348 208.865 164.124C208.865 163.89 208.945 163.694 209.103 163.536C209.271 163.368 209.467 163.284 209.691 163.284C209.925 163.284 210.121 163.368 210.279 163.536C210.438 163.694 210.517 163.89 210.517 164.124C210.517 164.348 210.438 164.544 210.279 164.712C210.121 164.87 209.925 164.95 209.691 164.95ZM216.336 171.964C216.056 171.964 215.869 171.884 215.776 171.726C215.692 171.567 215.65 171.343 215.65 171.054V164.796C215.65 164.385 215.575 164.054 215.426 163.802C215.277 163.54 215.104 163.349 214.908 163.228C214.955 163.125 215.067 163.018 215.244 162.906C215.431 162.784 215.645 162.724 215.888 162.724C216.224 162.724 216.499 162.854 216.714 163.116C216.938 163.368 217.05 163.764 217.05 164.306V171.054C217.05 171.343 217.003 171.567 216.91 171.726C216.817 171.884 216.625 171.964 216.336 171.964ZM218.855 175.17C218.472 175.17 218.15 175.104 217.889 174.974C217.628 174.852 217.436 174.708 217.315 174.54C217.194 174.381 217.128 174.246 217.119 174.134C217.278 174.199 217.455 174.25 217.651 174.288C217.838 174.334 218.01 174.358 218.169 174.358C218.636 174.358 218.995 174.227 219.247 173.966C219.508 173.714 219.639 173.429 219.639 173.112L219.625 165.902C219.625 165.678 219.69 165.514 219.821 165.412C219.952 165.3 220.12 165.244 220.325 165.244C220.53 165.244 220.698 165.3 220.829 165.412C220.96 165.524 221.025 165.687 221.025 165.902V172.902C221.025 173.2 220.964 173.522 220.843 173.868C220.722 174.213 220.498 174.516 220.171 174.778C219.854 175.039 219.415 175.17 218.855 175.17ZM225.451 165.244C226.31 165.244 226.959 165.426 227.397 165.79C227.845 166.154 228.069 166.821 228.069 167.792V172.846C228.069 173.172 228.009 173.508 227.887 173.854C227.766 174.208 227.542 174.516 227.215 174.778C226.889 175.039 226.441 175.17 225.871 175.17C225.367 175.17 224.961 175.062 224.653 174.848C224.345 174.633 224.154 174.39 224.079 174.12C224.201 174.176 224.359 174.227 224.555 174.274C224.751 174.32 224.938 174.344 225.115 174.344C225.563 174.344 225.932 174.222 226.221 173.98C226.511 173.746 226.655 173.434 226.655 173.042L226.669 171.964L225.241 171.992C224.327 171.992 223.664 171.726 223.253 171.194C222.852 170.652 222.651 169.808 222.651 168.66C222.651 167.726 222.768 167.012 223.001 166.518C223.244 166.014 223.566 165.678 223.967 165.51C224.369 165.332 224.863 165.244 225.451 165.244ZM224.051 168.618C224.051 169.168 224.149 169.682 224.345 170.158C224.541 170.624 224.961 170.858 225.605 170.858H226.655V167.736C226.655 167.241 226.543 166.886 226.319 166.672C226.105 166.457 225.82 166.35 225.465 166.35C224.989 166.35 224.635 166.536 224.401 166.91C224.168 167.283 224.051 167.852 224.051 168.618ZM232.138 165.244C232.726 165.244 233.244 165.393 233.692 165.692C234.149 165.99 234.499 166.382 234.742 166.868C234.994 167.344 235.12 167.848 235.12 168.38C235.12 168.865 235.022 169.388 234.826 169.948C234.639 170.498 234.326 170.974 233.888 171.376C233.458 171.768 232.908 171.964 232.236 171.964H230.164C230.005 171.964 229.893 171.908 229.828 171.796C229.762 171.684 229.73 171.562 229.73 171.432C229.73 171.282 229.772 171.152 229.856 171.04C229.94 170.918 230.08 170.858 230.276 170.858H231.046C231.96 170.858 232.632 170.624 233.062 170.158C233.491 169.691 233.706 169.112 233.706 168.422C233.706 167.815 233.556 167.32 233.258 166.938C232.959 166.546 232.576 166.34 232.11 166.322C231.494 166.518 231.186 166.966 231.186 167.666C231.074 167.684 230.966 167.694 230.864 167.694C230.714 167.694 230.588 167.675 230.486 167.638C230.308 167.6 230.164 167.512 230.052 167.372C229.94 167.232 229.884 167.045 229.884 166.812C229.884 166.336 230.108 165.958 230.556 165.678C231.013 165.388 231.54 165.244 232.138 165.244ZM232.516 166.238C232.488 166.238 232.464 166.242 232.446 166.252L232.516 166.238Z"/></g><defs><filter id="filter0_dd_16_326" width="312" height="262" x="0" y="0" color-interpolation-filters="sRGB" filterUnits="userSpaceOnUse"><feFlood flood-opacity="0" result="BackgroundImageFix"/><feColorMatrix in="SourceAlpha" result="hardAlpha" type="matrix" values="0 0 0 0 0 0 0 0 0 0 0 0 0 0 0 0 0 0 127 0"/><feMorphology in="SourceAlpha" operator="erode" radius="5" result="effect1_dropShadow_16_326"/><feOffset dy="10"/><feGaussianBlur stdDeviation="5"/><feComposite in2="hardAlpha" operator="out"/><feColorMatrix type="matrix" values="0 0 0 0 0 0 0 0 0 0 0 0 0 0 0 0 0 0 0.04 0"/><feBlend in2="BackgroundImageFix" mode="normal" result="effect1_dropShadow_16_326"/><feColorMatrix in="SourceAlpha" result="hardAlpha" type="matrix" values="0 0 0 0 0 0 0 0 0 0 0 0 0 0 0 0 0 0 127 0"/><feMorphology in="SourceAlpha" operator="erode" radius="5" result="effect2_dropShadow_16_326"/><feOffset dy="20"/><feGaussianBlur stdDeviation="12.5"/><feComposite in2="hardAlpha" operator="out"/><feColorMatrix type="matrix" values="0 0 0 0 0 0 0 0 0 0 0 0 0 0 0 0 0 0 0.1 0"/><feBlend in2="effect1_dropShadow_16_326" mode="normal" result="effect2_dropShadow_16_326"/><feBlend in="SourceGraphic" in2="effect2_dropShadow_16_326" mode="normal" result="shape"/></filter><linearGradient id="paint0_linear_16_326" x1="165.699" x2="140.674" y1="117.964" y2="53.642" gradientUnits="userSpaceOnUse"><stop offset=".063" stop-color="#6F7354"/><stop offset="1" stop-color="#D1D6AA"/></linearGradient></defs></svg>